<?xml version="1.0" encoding="UTF-8" standalone="no"?>
<svg xmlns:rdf="http://www.w3.org/1999/02/22-rdf-syntax-ns#" xmlns="http://www.w3.org/2000/svg" height="363.75" viewBox="0 0 394.02643 363.74591" width="394.03" version="1.1" xmlns:cc="http://creativecommons.org/ns#" xmlns:dc="http://purl.org/dc/elements/1.1/">
<path d="m346.5 362.24c-1.367-1.6472 2.14-41.451 11.097-125.94 5.0881-47.999 4.7816-46.801 11.111-43.413 2.7376 1.4651-11.954 165.55-15.169 169.42-1.6127 1.9432-5.4007 1.9083-7.0384-0.0649zm-258.78-1.74c-1.4763-1.7788-10.283-149.26-9.0988-152.38 1.0174-2.676 5.9084-3.2624 7.8362-0.93959 2.1924 2.6417 9.9822 150.84 8.0509 153.17-1.492 1.7978-5.3483 1.8802-6.7883 0.14506zm62.365-1.79c-31.294-1.2225-48.854-3.5647-39.361-5.2503 30.479-5.4119 227.69-4.1207 222.11 1.4543-3.8929 3.8929-119.04 6.2847-182.75 3.796zm-93.531-19.52c-12.841-10.407-15.288-15.275-8.5299-16.971 2.7123-0.68073 5.0172 0.83939 19.78 13.045 6.8353 5.6513 8.2814 8.6054 5.55 11.337-2.6866 2.6866-6.3175 1.085-16.8-7.4106zm115 1.8817c-2.8175-1.0725-2.9694-2.8061-2.9847-34.063-0.0168-34.373 0.70845-40.881 5.9545-53.426 19.505-46.645 79.033-47.868 102.79-2.1111 8.2008 15.795 8.2404 16.052 8.2404 53.598 0 35.04-0.087 35.732-4.5 35.732-4.3712 0-4.4991-0.90448-4.5174-31.95-0.0293-49.887-9.8879-70.889-37.166-79.174-39.961-12.138-60.816 13.759-60.816 75.519 0 36.673-0.33935 38.412-7 35.877zm-143.4-24.57c-1.5239-1.1143-9.466-113.64-9.5903-135.88-0.02661-4.7606 3.8374-7.1123 7.4026-4.5054 2.6209 1.9164 11.226 135.85 8.9584 139.43-1.5986 2.5293-4.1264 2.8842-6.7707 0.95064zm86.691 0.31464c-15.394-3.278-9.1307-7.0822 12.789-7.7686 21.585-0.67585 33.539 2.4718 24.287 6.3951-4.5105 1.9126-30.093 2.8603-37.076 1.3734zm190.7-2.642c-16.411-3.1822-9.4627-8.6406 11-8.6406 16.788 0 24.761 3.3709 16.338 6.9071-3.8315 1.6086-22.031 2.7626-27.338 1.7335zm-3.8189-58.424c-6.2761-1.1241-9.4521-2.6362-8.9158-4.245 1.8727-5.6182 46.235-5.2964 46.235 0.33535 0 3.5822-24.7 6.1698-37.319 3.9097zm-191.41-1.2969c-6.2579-1.4012-7.2976-1.9861-6.3257-3.5587 3.2224-5.2139 58.058-4.7927 58.058 0.4459 0 3.6521-38.876 5.9913-51.732 3.1128zm39.232-50.269c-17.427-0.66985-43.866-2.5206-46.635-3.2646l-2.8651-0.7697 2.5-0.619c18.916-4.6836 225.5-4.553 242.57 0.15331l2.9347 0.8093-4 0.66832c-14.27 2.3842-154.44 4.5623-194.5 3.0223zm-98.807-7.9279c-1.4457-1.0332-2.1923-2.4526-2-3.8021 0.34369-2.4116 14.701-14.041 153.27-124.15 11.074-8.8 22.545-17.936 25.49-20.301 8.8246-7.088 6.696-8.3434 48.243 28.453 128.97 114.23 120.1 105.87 116.76 109.9-2.6624 3.208-6.8987-0.20992-80.631-65.055-41.58-36.575-75.88-66.5-76.22-66.5-1.1798 0-171.61 136.11-174.09 139.04-3.1088 3.6632-7.6446 4.6782-10.807 2.4182zm-14.693-23.271c-11.847-9.2141-14.079-15.229-5.6276-15.164 7.4204 0.0571 24.883 18.492 20.531 21.674-3.0189 2.2074-4.564 1.5326-14.904-6.5094zm89-10.846c-12.893-3.0936-9.7646-5.6636 9.25-7.5977 15.798-1.6069 40.25 0.99265 40.25 4.2791 0 4.0226-36.396 6.4626-49.5 3.3186zm178.5 0.96022c-7.3496-0.57414-14.769-2.3156-15.955-3.745-4.8544-5.8492 47.058-7.261 55.955-1.5217 5.7829 3.7305-18.588 6.9394-40 5.2667zm-299.65-1.34c-8.2141-3.11-12.791 1.21 88.162-83.152 102.65-85.782 94.611-79.344 97.311-77.898 7.51 4.0187 12.73-0.90929-90.17 85.068-96.965 81.012-92.145 77.172-95.303 75.982zm215.66-0.65c-13.213-1.0321-19.912-4.069-13.782-6.2474 12.521-4.4495 54.782-2.9309 54.782 1.9686 0 3.1933-23.5 5.6458-41 4.2788zm2-56c-13.213-1.0321-19.912-4.069-13.782-6.2473 12.521-4.4495 54.782-2.9309 54.782 1.9686 0 3.1933-23.5 5.6458-41 4.2788zm-8.0862-71.394c-4.6276-3.3523-10.098-7.2898-12.156-8.75-5.6895-4.0362-5.5145-11.155 0.27412-11.155 7.3955 0 28.66 21.559 24.363 24.701-2.7428 2.0056-3.4866 1.7198-12.481-4.7957z"/>
</svg>
