<?xml version="1.0" encoding="UTF-8"?>
<svg xmlns="http://www.w3.org/2000/svg" xmlns:xlink="http://www.w3.org/1999/xlink" width="374.68pt" height="438.67pt" viewBox="0 0 374.68 438.67" version="1.1">
<defs>
<clipPath id="clip1">
  <path d="M 0 0 L 374.679688 0 L 374.679688 438.671875 L 0 438.671875 Z M 0 0 "/>
</clipPath>
</defs>
<g id="surface1">
<path style=" stroke:none;fill-rule:nonzero;fill:rgb(255%,255%,255%);fill-opacity:1;" d="M 189.257813 210.441406 C 189.027344 210.589844 189.164063 210.984375 189.453125 210.886719 C 195.535156 208.824219 201.921875 207.90625 208.335938 209.007813 C 214.78125 210.113281 218.84375 213.453125 224.363281 216.230469 C 225.226563 216.664063 226.296875 215.769531 225.746094 214.925781 C 222.515625 209.957031 214.707031 207.320313 208.878906 206.496094 C 201.984375 205.519531 195.027344 206.714844 189.257813 210.441406 "/>
<path style=" stroke:none;fill-rule:nonzero;fill:rgb(255%,255%,255%);fill-opacity:1;" d="M 256.308594 171.367188 C 250.082031 171.402344 244.394531 169.414063 238.585938 167.601563 C 236.191406 166.851563 233.746094 166.175781 231.289063 165.929688 C 235.144531 164.4375 238.789063 162.613281 242.371094 160.707031 C 242.480469 169.089844 253.84375 170.992188 260.4375 167.582031 C 267.144531 164.109375 271.285156 155.855469 269.328125 148.789063 C 270.9375 148.441406 272.582031 148.148438 274.285156 147.972656 C 277.007813 147.691406 279.847656 147.535156 282.730469 147.382813 C 278.859375 158.6875 270.199219 171.285156 256.308594 171.367188 M 268.316406 149 C 268.984375 154.832031 267.796875 160.417969 262.683594 164.488281 C 256.023438 169.789063 246.347656 167.925781 244.695313 159.453125 C 252.28125 155.332031 259.699219 151.058594 268.316406 149 M 315.746094 136.875 C 316.433594 136.089844 315.382813 135.070313 314.554688 135.75 C 303.113281 145.101563 288.335938 143.882813 274.285156 145.289063 C 262.015625 146.523438 252.324219 151.820313 241.90625 157.648438 C 230.6875 163.925781 216.25 170.5 203.75 163.152344 C 189.703125 154.898438 196.289063 138.316406 204.609375 128.757813 C 204.671875 128.6875 204.566406 128.582031 204.496094 128.652344 C 196.828125 136.386719 189.933594 149.359375 196.355469 159.585938 C 202.660156 169.625 216.730469 170.484375 227.425781 167.273438 C 239.992188 168.496094 252.007813 176.570313 264.824219 172.226563 C 269.96875 170.480469 273.667969 166.800781 276.910156 162.796875 C 280.628906 158.207031 284.414063 153.121094 285.136719 147.257813 C 296.480469 146.632813 308.183594 145.570313 315.746094 136.875 "/>
<path style=" stroke:none;fill-rule:nonzero;fill:rgb(255%,255%,255%);fill-opacity:1;" d="M 301.320313 126.289063 C 301.515625 125.867188 301.292969 125.398438 300.765625 125.378906 C 290.480469 124.953125 278.46875 123.382813 268.457031 126.257813 C 260.804688 128.453125 254.351563 133.128906 248.425781 138.117188 C 249.726563 133.941406 251.40625 129.945313 253.027344 125.8125 C 253.132813 125.542969 252.699219 125.304688 252.503906 125.527344 C 248.488281 130.078125 246.183594 135.785156 244.792969 141.503906 C 244.5 142.707031 246.015625 143.5625 246.980469 142.703125 C 255.695313 134.953125 264.925781 127.53125 277.378906 126.632813 C 283.117188 126.21875 288.9375 126.558594 294.683594 126.59375 C 298.648438 126.617188 299.910156 126.359375 298.269531 130.078125 C 297.144531 132.632813 296.023438 135.183594 294.9375 137.753906 C 294.820313 138.027344 295.121094 138.402344 295.4375 138.371094 C 301.132813 137.773438 306.621094 136.507813 311.675781 133.902344 C 311.945313 133.761719 311.757813 133.316406 311.464844 133.429688 C 307.871094 134.796875 303.035156 137.191406 299.015625 137.019531 C 295.097656 136.855469 297.34375 135.019531 298.238281 133.066406 C 299.269531 130.8125 300.292969 128.550781 301.320313 126.289063 "/>
<path style=" stroke:none;fill-rule:nonzero;fill:rgb(255%,255%,255%);fill-opacity:1;" d="M 201.277344 150.808594 C 201.144531 151.355469 201.945313 151.542969 202.148438 151.035156 C 205.773438 142.15625 212.953125 135.792969 222.980469 134.539063 C 219.832031 139.199219 218.292969 144.363281 218.433594 149.96875 C 218.453125 150.796875 219.792969 151.273438 220.210938 150.421875 C 226.480469 137.550781 237.769531 129.328125 252.105469 125.617188 C 252.183594 125.597656 252.148438 125.496094 252.070313 125.507813 C 238.910156 127.265625 227.121094 135.46875 220.4375 146.207031 C 220.855469 141.816406 222.429688 137.789063 225.242188 134.007813 C 225.574219 133.558594 225.136719 132.839844 224.558594 132.886719 C 213.949219 133.699219 203.699219 140.738281 201.277344 150.808594 "/>
<path style=" stroke:none;fill-rule:nonzero;fill:rgb(255%,255%,255%);fill-opacity:1;" d="M 188.570313 181.066406 C 188.613281 181.304688 189.019531 181.242188 189.011719 181.011719 C 188.804688 175.039063 190.839844 169.410156 194.714844 164.707031 C 195.433594 163.835938 194.152344 162.585938 193.402344 163.46875 C 189.078125 168.542969 187.460938 174.664063 188.570313 181.066406 "/>
<path style=" stroke:none;fill-rule:nonzero;fill:rgb(255%,255%,255%);fill-opacity:1;" d="M 211.738281 172.0625 C 204.351563 173.511719 197.890625 178.742188 195.375 185.445313 C 195.355469 185.503906 195.449219 185.539063 195.476563 185.488281 C 199.132813 179.21875 204.898438 175.335938 212.355469 174.167969 C 213.808594 173.941406 213.207031 171.773438 211.738281 172.0625 "/>
<path style=" stroke:none;fill-rule:nonzero;fill:rgb(255%,255%,255%);fill-opacity:1;" d="M 294.125 151.90625 C 296.378906 157.707031 299.445313 163.101563 301.234375 169.089844 C 302.515625 173.382813 302.972656 177.683594 303.480469 182.015625 C 301.363281 178.816406 299.003906 175.894531 295.78125 173.320313 C 295.382813 173.003906 294.867188 173.3125 294.945313 173.777344 C 296.492188 183.007813 293.507813 191.9375 288.773438 199.949219 C 287.332031 202.382813 284.808594 208.015625 282.339844 209.445313 C 280.585938 210.464844 281.449219 208.816406 281.546875 207.097656 C 281.667969 204.941406 281.804688 202.789063 281.953125 200.636719 C 281.996094 200.027344 280.953125 199.726563 280.6875 200.3125 C 277.933594 206.410156 274.320313 211.574219 268.964844 215.933594 C 267.9375 216.765625 269.433594 218.175781 270.449219 217.335938 C 274.882813 213.65625 278.40625 209.261719 280.644531 204.179688 C 280.675781 206.691406 280.695313 209.199219 280.695313 211.710938 C 280.695313 212.011719 281.101563 212.085938 281.269531 211.855469 C 286.890625 203.980469 293.078125 196.035156 295.460938 186.636719 C 295.773438 185.398438 296.429688 175.046875 296.226563 175.117188 C 296.957031 174.859375 300.355469 179.503906 300.773438 180.078125 C 302.402344 182.324219 303.574219 184.765625 304.210938 187.421875 C 304.519531 188.722656 306.320313 188.242188 306.46875 187.132813 C 307.9375 175.898438 302.890625 159.902344 294.6875 151.597656 C 294.464844 151.375 294.007813 151.605469 294.125 151.90625 "/>
<path style=" stroke:none;fill-rule:nonzero;fill:rgb(255%,255%,255%);fill-opacity:1;" d="M 240.183594 80.753906 C 258.222656 72.867188 277.722656 84.261719 296.425781 80.101563 C 297.335938 79.898438 297.28125 78.640625 296.425781 78.414063 C 293.371094 77.605469 290.734375 76.40625 288.339844 74.707031 C 306.917969 78.285156 326.367188 73.625 341.144531 62.328125 C 341.792969 61.835938 341.277344 60.609375 340.4375 60.714844 C 336.097656 61.25 331.953125 60.765625 327.902344 59.433594 C 341.535156 54.449219 354.628906 44.273438 359.964844 31.214844 C 361.519531 43.925781 363.667969 55.683594 359.972656 68.5 C 358.371094 74.058594 355.875 79.417969 352.457031 84.203125 C 348.765625 89.371094 344.171875 92.917969 339.269531 96.960938 C 338.484375 97.605469 339.488281 98.632813 340.320313 98.242188 C 351.167969 93.148438 358.449219 81.113281 361.84375 70.574219 C 365.996094 57.65625 366.195313 41.363281 361.085938 28.640625 C 360.824219 27.980469 359.589844 28.007813 359.683594 28.820313 C 359.6875 28.855469 359.6875 28.890625 359.695313 28.925781 C 359.566406 28.96875 359.449219 29.046875 359.371094 29.175781 C 351.152344 42.710938 341.097656 53.234375 325.117188 58.589844 C 324.464844 58.808594 324.117188 59.832031 324.898438 60.152344 C 328.996094 61.820313 332.992188 62.566406 337.269531 62.652344 C 322.054688 72.535156 303.355469 75.929688 285.199219 72.234375 C 284.335938 72.058594 283.621094 73.050781 284.304688 73.679688 C 286.8125 75.984375 289.527344 77.738281 292.617188 78.988281 C 275.203125 81.226563 256.324219 72.015625 240.128906 80.660156 C 240.0625 80.695313 240.117188 80.78125 240.183594 80.753906 "/>
<path style=" stroke:none;fill-rule:nonzero;fill:rgb(255%,255%,255%);fill-opacity:1;" d="M 330.566406 94.003906 C 334.386719 93.300781 338.164063 92.4375 341.945313 91.570313 C 342.527344 91.4375 342.402344 90.566406 341.804688 90.589844 C 336.53125 90.796875 331.929688 88.433594 326.882813 87.394531 C 323.5625 86.710938 320.246094 86.511719 316.894531 86.46875 C 319.828125 84.542969 322.957031 83.238281 326.582031 82.464844 C 327.652344 82.234375 327.476563 80.886719 326.582031 80.578125 C 320.953125 78.664063 315.265625 77.40625 309.332031 76.726563 C 308.015625 76.574219 308.039063 78.511719 309.332031 78.667969 C 313.9375 79.226563 318.398438 80.171875 322.796875 81.464844 C 319.300781 82.613281 316.171875 84.332031 313.304688 86.730469 C 312.492188 87.40625 313.382813 88.417969 314.261719 88.28125 C 321.621094 87.132813 328.023438 89.0625 334.996094 90.855469 C 335.738281 91.046875 336.976563 91.449219 337.933594 91.535156 C 335.421875 92.167969 332.929688 92.902344 330.464844 93.648438 C 330.21875 93.722656 330.320313 94.050781 330.566406 94.003906 "/>
<g clip-path="url(#clip1)" clip-rule="nonzero">
<path style=" stroke:none;fill-rule:nonzero;fill:rgb(255%,255%,255%);fill-opacity:1;" d="M 368.996094 73.625 C 368.734375 73.792969 368.46875 73.960938 368.207031 74.128906 C 378.652344 50.933594 374.363281 24.945313 369.882813 0.847656 C 369.765625 0.238281 368.957031 -0.132813 368.363281 0.0351563 C 349.542969 5.363281 333.058594 16.035156 321.046875 30.597656 C 321.828125 27.695313 322.960938 24.941406 324.53125 22.179688 C 324.960938 21.421875 324.027344 20.308594 323.175781 20.898438 C 311.585938 28.953125 300.613281 37.679688 290.335938 47.171875 C 291.484375 43.910156 292.308594 40.59375 292.816406 37.136719 C 292.957031 36.183594 291.960938 35.601563 291.144531 36.21875 C 282.164063 43.023438 272.128906 48.03125 261.40625 51.289063 C 249.738281 42.90625 234.59375 43.964844 220.921875 47.0625 C 223.960938 44.882813 227.003906 42.703125 230.105469 40.613281 C 231.117188 39.929688 230.707031 38.605469 229.492188 38.484375 C 214.976563 37.035156 198.324219 36.097656 187.34375 46.605469 C 176.359375 36.097656 159.710938 37.035156 145.191406 38.484375 C 143.976563 38.605469 143.566406 39.929688 144.578125 40.613281 C 147.683594 42.703125 150.726563 44.882813 153.761719 47.0625 C 140.09375 43.964844 124.949219 42.90625 113.277344 51.289063 C 102.554688 48.03125 92.523438 43.023438 83.539063 36.21875 C 82.726563 35.601563 81.726563 36.183594 81.867188 37.136719 C 82.375 40.59375 83.199219 43.910156 84.347656 47.171875 C 74.070313 37.679688 63.097656 28.953125 51.511719 20.898438 C 50.660156 20.308594 49.722656 21.421875 50.152344 22.179688 C 51.722656 24.941406 52.859375 27.695313 53.640625 30.597656 C 41.625 16.035156 25.140625 5.363281 6.320313 0.0351563 C 5.726563 -0.132813 4.917969 0.238281 4.804688 0.847656 C 0.320313 24.945313 -3.96875 50.933594 6.480469 74.128906 C 6.214844 73.960938 5.953125 73.792969 5.6875 73.625 C 5.019531 73.199219 4.429688 74.003906 4.691406 74.5625 C 9.800781 85.453125 17.78125 95.015625 27.957031 102.039063 C 21.730469 102.746094 15.84375 101.992188 10.164063 99.382813 C 9.25 98.964844 8.316406 99.8125 8.78125 100.6875 C 15.222656 112.765625 27.035156 121.53125 40.871094 124.671875 C 32.554688 127.1875 23.988281 127.546875 15.289063 125.722656 C 13.878906 125.425781 13.214844 127.089844 14.339844 127.851563 C 19.300781 131.214844 24.621094 133.726563 30.390625 135.480469 C 17.214844 146.578125 8.550781 162.320313 7.480469 179.054688 C 7.417969 180.011719 8.742188 180.421875 9.410156 179.8125 C 13.164063 176.386719 17.371094 173.574219 21.960938 171.304688 C 17.113281 184.199219 16.390625 198.609375 21.136719 211.640625 C 21.183594 211.769531 21.257813 211.871094 21.335938 211.964844 C 20.476563 218.082031 20.347656 224.296875 20.996094 230.476563 C 21.097656 231.414063 22.648438 232.136719 23.152344 231.027344 C 25.949219 224.925781 29.695313 219.660156 34.632813 215 C 32.089844 242.367188 39.464844 270.105469 54.746094 293.445313 C 55.3125 294.308594 56.816406 293.976563 56.800781 292.921875 C 56.671875 282.59375 58.296875 272.503906 61.628906 262.714844 C 67.375 280.832031 82.054688 294.460938 96.332031 307.183594 C 97.144531 307.90625 98.191406 307.15625 98.058594 306.238281 C 97.089844 299.617188 96.054688 293.003906 95.085938 286.378906 C 106.421875 295.40625 114.890625 306.914063 119.976563 320.125 C 120.15625 320.589844 120.539063 320.832031 120.949219 320.898438 C 118.875 336.402344 116.710938 351.878906 120.28125 367.410156 C 120.449219 368.144531 121.734375 368.363281 122.074219 367.632813 C 123.84375 363.859375 125.9375 360.3125 128.355469 356.917969 C 127.742188 373.398438 133.183594 389.511719 143.890625 402.648438 C 144.289063 403.132813 145.183594 403.316406 145.535156 402.648438 C 146.746094 400.359375 147.644531 398.046875 148.273438 395.648438 C 151.339844 407.75 158.519531 418.429688 169.058594 426.15625 C 169.71875 426.636719 170.910156 426.402344 170.863281 425.449219 C 170.777344 423.667969 170.699219 421.886719 170.609375 420.105469 C 174.199219 427.210938 178.886719 433.566406 185.605469 438.574219 C 186.019531 438.882813 186.597656 438.378906 186.199219 438.015625 C 179.039063 431.53125 173.042969 423.960938 170.242188 414.859375 C 169.945313 413.890625 168.351563 414.0625 168.359375 415.097656 C 168.382813 417.828125 168.515625 420.550781 168.644531 423.277344 C 158.152344 414.878906 151.21875 403.386719 149.128906 390.472656 C 148.953125 389.398438 147.351563 389.78125 147.257813 390.710938 C 146.902344 394.179688 146.019531 397.335938 144.539063 400.453125 C 134.03125 386.929688 129.066406 370.535156 130.488281 353.765625 C 130.574219 352.761719 129.1875 352.65625 128.675781 353.304688 C 125.949219 356.761719 123.625 360.394531 121.625 364.238281 C 117.164063 340.359375 125.59375 316.609375 125.292969 292.644531 C 125.167969 282.730469 123.527344 272.589844 118.398438 263.804688 C 113.007813 254.574219 104.109375 247.808594 95.523438 241.339844 C 94.226563 240.363281 92.371094 242.089844 93.679688 243.078125 C 102.339844 249.601563 111.355469 256.339844 116.804688 265.648438 C 122.90625 276.074219 123.785156 288.386719 123.164063 300.050781 C 122.859375 305.785156 122.183594 311.511719 121.4375 317.234375 C 115.707031 303.953125 106.480469 292.449219 94.480469 283.570313 C 93.695313 282.988281 92.734375 283.527344 92.871094 284.453125 C 93.84375 290.929688 94.730469 297.421875 95.660156 303.90625 C 81.542969 291.265625 67.234375 277.503906 62.734375 259.066406 C 62.488281 258.054688 61.058594 258.222656 60.730469 259.066406 C 56.941406 268.800781 54.914063 278.871094 54.636719 289.183594 C 40.464844 266.152344 34.304688 239.933594 36.160156 213.3125 C 36.199219 212.726563 35.402344 212.503906 34.992188 212.855469 C 30.347656 216.910156 26.382813 221.503906 23.144531 226.589844 C 22.816406 212.59375 25.851563 198.648438 32.679688 186.128906 C 39.648438 173.351563 51.207031 159.105469 67.398438 157.101563 C 67.910156 157.039063 67.949219 156.304688 67.398438 156.320313 C 51.15625 156.789063 39.511719 169.449219 32.015625 181.921875 C 27.34375 189.695313 24.050781 198.132813 22.234375 206.839844 C 19.375 194.265625 19.914063 181.804688 24.929688 169.535156 C 25.300781 168.632813 24.113281 168.0625 23.363281 168.398438 C 18.511719 170.566406 14.164063 173.234375 10.097656 176.433594 C 12.515625 160.511719 20.402344 146.269531 33.609375 135.785156 C 34.316406 135.226563 33.890625 134.121094 33.085938 133.90625 C 28.652344 132.722656 24.53125 131.0625 20.628906 128.933594 C 29.175781 129.808594 37.648438 128.558594 45.722656 125.3125 C 46.605469 124.960938 46.40625 123.4375 45.445313 123.308594 C 31.277344 121.410156 19.101563 113.710938 11.929688 102.15625 C 17.40625 104.109375 23.050781 104.511719 28.898438 103.046875 C 29.03125 103.011719 29.117188 102.953125 29.183594 102.882813 C 29.875 103.335938 30.570313 103.78125 31.277344 104.210938 C 31.707031 104.472656 32.078125 103.84375 31.671875 103.574219 C 21.011719 96.371094 12.679688 87.269531 7.0625 76.171875 C 7.316406 76.335938 7.570313 76.5 7.824219 76.664063 C 8.503906 77.101563 9.097656 76.277344 8.835938 75.710938 C -1.921875 52.410156 2.359375 26.847656 6.949219 2.675781 C 26.144531 8.46875 42.78125 19.800781 54.644531 35.199219 C 55.367188 36.136719 56.753906 35.558594 56.574219 34.429688 C 56.03125 31.015625 55.0625 27.808594 53.65625 24.710938 C 65.191406 32.839844 76.011719 41.800781 86.132813 51.464844 C 86.78125 52.085938 88.183594 51.457031 87.789063 50.558594 C 86.15625 46.824219 84.984375 43.050781 84.226563 39.125 C 98.398438 49.53125 115.386719 56.101563 133.375 57.441406 C 134.855469 57.550781 134.816406 55.425781 133.375 55.277344 C 126.859375 54.621094 120.503906 53.390625 114.363281 51.601563 C 128.152344 44.058594 143.566406 46.191406 158.378906 50.28125 C 159.632813 50.628906 160.097656 49.089844 159.203125 48.4375 C 155.5625 45.796875 151.882813 43.1875 148.277344 40.496094 C 161.53125 39.386719 175.957031 39.203125 185.75 48.757813 C 185.773438 49.539063 186.566406 50.230469 187.34375 50.082031 C 188.117188 50.230469 188.910156 49.539063 188.9375 48.757813 C 198.726563 39.203125 213.152344 39.386719 226.40625 40.496094 C 222.800781 43.1875 219.121094 45.796875 215.484375 48.4375 C 214.585938 49.089844 215.050781 50.628906 216.308594 50.28125 C 231.117188 46.191406 246.53125 44.058594 260.320313 51.601563 C 254.179688 53.390625 247.824219 54.621094 241.3125 55.277344 C 239.867188 55.425781 239.828125 57.550781 241.3125 57.441406 C 259.296875 56.101563 276.285156 49.53125 290.460938 39.125 C 289.699219 43.050781 288.527344 46.824219 286.894531 50.558594 C 286.5 51.457031 287.902344 52.085938 288.550781 51.464844 C 298.671875 41.800781 309.492188 32.839844 321.03125 24.710938 C 319.621094 27.808594 318.652344 31.015625 318.109375 34.429688 C 317.929688 35.558594 319.316406 36.136719 320.039063 35.199219 C 331.90625 19.800781 348.542969 8.46875 367.734375 2.675781 C 372.328125 26.847656 376.605469 52.410156 365.847656 75.710938 C 365.585938 76.277344 366.179688 77.101563 366.859375 76.664063 C 367.113281 76.5 367.367188 76.335938 367.621094 76.171875 C 362.003906 87.269531 353.675781 96.371094 343.011719 103.574219 C 342.609375 103.84375 342.976563 104.472656 343.40625 104.210938 C 344.113281 103.78125 344.8125 103.335938 345.5 102.882813 C 345.566406 102.953125 345.65625 103.011719 345.785156 103.046875 C 351.632813 104.511719 357.277344 104.109375 362.753906 102.15625 C 355.582031 113.710938 343.410156 121.410156 329.238281 123.308594 C 328.28125 123.4375 328.078125 124.960938 328.960938 125.3125 C 337.035156 128.558594 345.507813 129.808594 354.054688 128.933594 C 350.15625 131.0625 346.03125 132.722656 341.601563 133.90625 C 340.796875 134.121094 340.367188 135.226563 341.074219 135.785156 C 354.28125 146.269531 362.171875 160.511719 364.585938 176.433594 C 360.519531 173.234375 356.175781 170.566406 351.320313 168.398438 C 350.570313 168.0625 349.382813 168.632813 349.753906 169.535156 C 354.769531 181.804688 355.308594 194.265625 352.449219 206.839844 C 350.632813 198.132813 347.34375 189.695313 342.671875 181.921875 C 335.175781 169.449219 323.527344 156.789063 307.285156 156.320313 C 306.734375 156.304688 306.773438 157.039063 307.285156 157.101563 C 323.480469 159.105469 335.039063 173.351563 342.007813 186.128906 C 348.832031 198.648438 351.867188 212.59375 351.539063 226.589844 C 348.304688 221.503906 344.335938 216.910156 339.691406 212.855469 C 339.285156 212.503906 338.484375 212.726563 338.527344 213.3125 C 340.378906 239.933594 334.222656 266.152344 320.050781 289.183594 C 319.769531 278.871094 317.742188 268.800781 313.953125 259.066406 C 313.625 258.222656 312.195313 258.054688 311.949219 259.066406 C 307.449219 277.503906 293.144531 291.265625 279.023438 303.90625 C 279.953125 297.421875 280.84375 290.929688 281.8125 284.453125 C 281.953125 283.527344 280.988281 282.988281 280.207031 283.570313 C 268.203125 292.449219 258.976563 303.953125 253.246094 317.234375 C 252.5 311.511719 251.828125 305.785156 251.523438 300.050781 C 250.898438 288.386719 251.78125 276.074219 257.882813 265.648438 C 263.332031 256.339844 272.34375 249.601563 281.003906 243.078125 C 282.3125 242.089844 280.460938 240.363281 279.160156 241.339844 C 270.574219 247.808594 261.679688 254.574219 256.289063 263.804688 C 251.15625 272.589844 249.515625 282.730469 249.390625 292.644531 C 249.09375 316.609375 257.519531 340.359375 253.058594 364.238281 C 251.0625 360.394531 248.734375 356.761719 246.007813 353.304688 C 245.496094 352.65625 244.113281 352.761719 244.199219 353.765625 C 245.621094 370.535156 240.652344 386.929688 230.148438 400.453125 C 228.664063 397.335938 227.78125 394.179688 227.429688 390.710938 C 227.335938 389.78125 225.730469 389.398438 225.558594 390.472656 C 223.464844 403.386719 216.535156 414.878906 206.039063 423.277344 C 206.171875 420.550781 206.300781 417.828125 206.324219 415.097656 C 206.335938 414.0625 204.742188 413.890625 204.445313 414.859375 C 201.644531 423.960938 195.648438 431.53125 188.484375 438.015625 C 188.085938 438.378906 188.667969 438.882813 189.078125 438.574219 C 195.800781 433.566406 200.484375 427.210938 204.078125 420.105469 C 203.984375 421.886719 203.90625 423.667969 203.824219 425.449219 C 203.777344 426.402344 204.964844 426.636719 205.625 426.15625 C 216.167969 418.429688 223.347656 407.75 226.414063 395.648438 C 227.039063 398.046875 227.9375 400.359375 229.148438 402.648438 C 229.503906 403.316406 230.398438 403.132813 230.792969 402.648438 C 241.5 389.511719 246.941406 373.398438 246.328125 356.917969 C 248.746094 360.3125 250.839844 363.859375 252.609375 367.632813 C 252.953125 368.363281 254.234375 368.144531 254.402344 367.410156 C 257.972656 351.878906 255.808594 336.402344 253.734375 320.898438 C 254.144531 320.832031 254.53125 320.589844 254.710938 320.125 C 259.792969 306.914063 268.261719 295.40625 279.601563 286.378906 C 278.632813 293.003906 277.597656 299.617188 276.628906 306.238281 C 276.492188 307.15625 277.539063 307.90625 278.351563 307.183594 C 292.628906 294.460938 307.308594 280.832031 313.058594 262.714844 C 316.386719 272.503906 318.011719 282.59375 317.882813 292.921875 C 317.867188 293.976563 319.375 294.308594 319.9375 293.445313 C 335.222656 270.105469 342.59375 242.367188 340.054688 215 C 344.988281 219.660156 348.738281 224.925781 351.53125 231.027344 C 352.039063 232.136719 353.589844 231.414063 353.6875 230.476563 C 354.335938 224.296875 354.207031 218.082031 353.351563 211.964844 C 353.429688 211.871094 353.503906 211.769531 353.550781 211.640625 C 358.296875 198.609375 357.570313 184.199219 352.722656 171.304688 C 357.3125 173.574219 361.519531 176.386719 365.273438 179.8125 C 365.945313 180.421875 367.265625 180.011719 367.203125 179.054688 C 366.132813 162.320313 357.472656 146.578125 344.296875 135.480469 C 350.0625 133.726563 355.382813 131.214844 360.347656 127.851563 C 361.472656 127.089844 360.804688 125.425781 359.394531 125.722656 C 350.695313 127.546875 342.128906 127.1875 333.8125 124.671875 C 347.648438 121.53125 359.460938 112.765625 365.902344 100.6875 C 366.367188 99.8125 365.4375 98.964844 364.519531 99.382813 C 358.839844 101.992188 352.953125 102.746094 346.730469 102.039063 C 356.902344 95.015625 364.886719 85.453125 369.992188 74.5625 C 370.257813 74.003906 369.664063 73.199219 368.996094 73.625 "/>
</g>
<path style=" stroke:none;fill-rule:nonzero;fill:rgb(255%,255%,255%);fill-opacity:1;" d="M 193.542969 116.933594 C 197.167969 108.25 202.757813 100.476563 209.84375 94.046875 C 205.8125 101.496094 202.550781 109.28125 199.980469 117.300781 C 199.507813 118.777344 201.558594 119.296875 202.402344 118.261719 C 214.183594 103.839844 231.933594 95.113281 251 93.789063 C 244.683594 98.132813 238.835938 102.910156 233.5625 108.4375 C 232.753906 109.285156 233.777344 110.566406 234.851563 110.011719 C 247.972656 103.265625 261.058594 102.574219 275.59375 101.65625 C 284.875 101.070313 295.144531 98.574219 299.648438 90.105469 C 300.175781 89.113281 298.6875 88.273438 298.066406 89.230469 C 290.605469 100.761719 275.867188 99.371094 263.449219 100.195313 C 255.03125 100.753906 247.03125 102.746094 239.371094 105.828125 C 244.476563 101.242188 249.945313 97.046875 255.902344 93.441406 C 256.949219 92.808594 256.554688 91.214844 255.261719 91.207031 C 235.921875 91.09375 217.523438 98.894531 204.5 112.105469 C 207.242188 104.464844 210.664063 97.105469 214.691406 89.941406 C 215.300781 88.855469 213.890625 87.90625 212.949219 88.671875 C 203.53125 96.300781 196.835938 105.683594 192.746094 116.726563 C 192.566406 117.207031 193.351563 117.390625 193.542969 116.933594 "/>
<path style=" stroke:none;fill-rule:nonzero;fill:rgb(255%,255%,255%);fill-opacity:1;" d="M 296.878906 246.261719 C 296.734375 245.613281 295.742188 245.367188 295.277344 245.863281 C 287.992188 253.648438 283.105469 263.089844 281.769531 273.449219 C 281.644531 274.402344 283.371094 274.609375 283.535156 273.675781 C 285.21875 264.261719 288.96875 255.761719 295.429688 248.453125 C 296.355469 252.480469 297.511719 256.425781 298.9375 260.328125 C 299.226563 261.105469 300.296875 261.261719 300.78125 260.554688 C 309.457031 247.890625 313.582031 233.203125 312.859375 218.199219 C 317.355469 221.753906 321.363281 225.695313 324.980469 230.09375 C 325.519531 230.753906 326.644531 230.167969 326.644531 229.445313 C 326.644531 218.257813 323.503906 207.050781 316.359375 197.996094 C 316.03125 197.578125 315.328125 197.933594 315.605469 198.410156 C 320.847656 207.371094 324.1875 216.609375 324.636719 226.761719 C 321 222.601563 316.964844 218.859375 312.453125 215.492188 C 311.851563 215.042969 310.699219 215.257813 310.765625 216.152344 C 311.882813 230.890625 308.1875 245.21875 300.179688 257.835938 C 298.847656 254.035156 297.742188 250.191406 296.878906 246.261719 "/>
<path style=" stroke:none;fill-rule:nonzero;fill:rgb(255%,255%,255%);fill-opacity:1;" d="M 243.828125 210.191406 C 244.554688 211.304688 246.21875 210.539063 245.976563 209.335938 C 243.929688 199.277344 230.726563 193.90625 222.039063 200.195313 C 221.921875 200.277344 222.027344 200.464844 222.15625 200.386719 C 226.636719 197.632813 232.03125 198.027344 236.371094 200.878906 C 240.066406 203.304688 241.585938 206.738281 243.828125 210.191406 "/>
<path style=" stroke:none;fill-rule:nonzero;fill:rgb(255%,255%,255%);fill-opacity:1;" d="M 329.546875 31.875 C 333.109375 27.0625 336.191406 22.296875 340.890625 18.316406 C 345.894531 14.074219 351.660156 11.015625 358.039063 9.019531 C 358.273438 8.945313 358.179688 8.601563 357.933594 8.664063 C 345.820313 11.714844 332.609375 19.714844 327.992188 31.257813 C 327.628906 32.167969 329.035156 32.566406 329.546875 31.875 "/>
<path style=" stroke:none;fill-rule:nonzero;fill:rgb(255%,255%,255%);fill-opacity:1;" d="M 297.941406 53.117188 C 302.304688 46.714844 306.765625 41.144531 313.570313 36.839844 C 314.039063 36.542969 313.617188 35.839844 313.125 36.121094 C 306.40625 39.957031 299.84375 45.472656 296.453125 52.296875 C 295.988281 53.234375 297.335938 54.007813 297.941406 53.117188 "/>
<path style=" stroke:none;fill-rule:nonzero;fill:rgb(255%,255%,255%);fill-opacity:1;" d="M 254.839844 62.824219 C 265.335938 60.75 275.136719 54.5625 283.457031 48.460938 C 283.800781 48.207031 283.339844 47.648438 282.988281 47.886719 C 274.058594 54.050781 264.269531 57.410156 254.257813 61.523438 C 253.429688 61.863281 254.054688 62.980469 254.839844 62.824219 "/>
<path style=" stroke:none;fill-rule:nonzero;fill:rgb(255%,255%,255%);fill-opacity:1;" d="M 295.054688 101.890625 C 281.039063 111.34375 262.125 103.011719 247.910156 111.488281 C 246.847656 112.121094 247.769531 113.476563 248.867188 113.035156 C 258.140625 109.300781 267.226563 109.589844 277.015625 108.578125 C 283.710938 107.882813 290 106.261719 295.320313 102.214844 C 295.511719 102.066406 295.253906 101.757813 295.054688 101.890625 "/>
<path style=" stroke:none;fill-rule:nonzero;fill:rgb(255%,255%,255%);fill-opacity:1;" d="M 212.371094 116.011719 C 217.882813 110.121094 224.773438 105.746094 232.789063 103.503906 C 233.238281 103.378906 233.050781 102.730469 232.597656 102.84375 C 224.277344 104.886719 216.980469 108.863281 211.21875 114.925781 C 210.515625 115.660156 211.675781 116.757813 212.371094 116.011719 "/>
<path style=" stroke:none;fill-rule:nonzero;fill:rgb(255%,255%,255%);fill-opacity:1;" d="M 255.28125 138.230469 C 254.417969 139.003906 255.730469 140.242188 256.585938 139.464844 C 264.976563 131.832031 276.328125 128.582031 287.738281 130.949219 C 288.125 131.027344 288.285156 130.480469 287.902344 130.390625 C 276.269531 127.632813 264.015625 130.445313 255.28125 138.230469 "/>
<path style=" stroke:none;fill-rule:nonzero;fill:rgb(255%,255%,255%);fill-opacity:1;" d="M 244.589844 133.058594 C 237.875 134.292969 232.058594 138.234375 228.972656 144.035156 C 228.566406 144.796875 229.769531 145.46875 230.1875 144.703125 C 233.230469 139.164063 238.316406 135.207031 244.804688 133.789063 C 245.3125 133.679688 245.09375 132.964844 244.589844 133.058594 "/>
<path style=" stroke:none;fill-rule:nonzero;fill:rgb(255%,255%,255%);fill-opacity:1;" d="M 215.109375 140.433594 C 211.441406 141.933594 207.066406 145.371094 206.453125 149.355469 C 206.324219 150.203125 207.492188 150.820313 208.007813 149.972656 C 209 148.335938 209.578125 146.609375 210.851563 145.101563 C 212.167969 143.535156 213.78125 142.246094 215.617188 141.253906 C 216.195313 140.941406 215.6875 140.199219 215.109375 140.433594 "/>
<path style=" stroke:none;fill-rule:nonzero;fill:rgb(255%,255%,255%);fill-opacity:1;" d="M 298.140625 170.109375 C 296.589844 166.097656 294.675781 162.253906 292.996094 158.296875 C 292.847656 157.941406 292.246094 158.085938 292.382813 158.453125 C 293.871094 162.453125 295.109375 166.515625 296.730469 170.476563 C 297.0625 171.296875 298.464844 170.949219 298.140625 170.109375 "/>
<path style=" stroke:none;fill-rule:nonzero;fill:rgb(255%,255%,255%);fill-opacity:1;" d="M 286.007813 199.640625 C 289.726563 193.710938 290.804688 187.0625 289.578125 180.3125 C 289.503906 179.882813 288.734375 179.988281 288.777344 180.414063 C 289.445313 186.964844 287.964844 193.144531 284.714844 198.929688 C 284.261719 199.730469 285.515625 200.425781 286.007813 199.640625 "/>
<path style=" stroke:none;fill-rule:nonzero;fill:rgb(255%,255%,255%);fill-opacity:1;" d="M 273.589844 206.585938 C 274.75 206.097656 275.515625 204.71875 276.113281 203.71875 C 276.816406 202.539063 277.34375 201.292969 277.742188 199.996094 C 277.90625 199.453125 277.054688 199.253906 276.855469 199.765625 C 276.371094 201.019531 275.75 202.214844 274.96875 203.324219 C 274.316406 204.246094 273.308594 205.046875 272.917969 206.097656 C 272.769531 206.488281 273.261719 206.722656 273.589844 206.585938 "/>
<path style=" stroke:none;fill-rule:nonzero;fill:rgb(255%,255%,255%);fill-opacity:1;" d="M 322.835938 271.320313 C 322.46875 271.398438 322.113281 271.664063 322.152344 272.054688 C 322.160156 272.152344 322.171875 272.25 322.179688 272.347656 C 322.238281 272.945313 322.710938 273.257813 323.324219 273.171875 C 325.335938 272.882813 325.550781 269.910156 326.035156 268.519531 C 327.480469 264.367188 328.871094 260.199219 330.035156 255.96875 C 332.359375 247.476563 333.683594 238.847656 333.050781 230.066406 C 333.011719 229.546875 332.183594 229.535156 332.1875 230.066406 C 332.265625 237.785156 330.984375 245.316406 328.875 252.761719 C 327.9375 256.078125 326.863281 259.355469 325.738281 262.621094 C 324.996094 264.769531 324.359375 269.371094 322.835938 271.320313 "/>
<path style=" stroke:none;fill-rule:nonzero;fill:rgb(255%,255%,255%);fill-opacity:1;" d="M 303.300781 266.363281 C 301.691406 270.273438 300.199219 274.21875 298.214844 277.976563 C 296.4375 281.34375 293.949219 284.359375 292.257813 287.734375 C 291.882813 288.480469 292.828125 289.25 293.496094 288.636719 C 299.230469 283.359375 302.972656 273.925781 304.121094 266.574219 C 304.203125 266.066406 303.503906 265.878906 303.300781 266.363281 "/>
<path style=" stroke:none;fill-rule:nonzero;fill:rgb(255%,255%,255%);fill-opacity:1;" d="M 272.5 282.011719 C 266.460938 284.867188 259.53125 290.394531 258.613281 297.164063 C 258.511719 297.929688 259.714844 298.121094 260.082031 297.539063 C 261.855469 294.710938 262.875 291.691406 265.097656 289.070313 C 267.253906 286.527344 269.882813 284.238281 272.847656 282.574219 C 273.234375 282.359375 272.894531 281.824219 272.5 282.011719 "/>
<path style=" stroke:none;fill-rule:nonzero;fill:rgb(255%,255%,255%);fill-opacity:1;" d="M 344.40625 210.480469 C 344.46875 210.574219 344.527344 210.667969 344.589844 210.761719 C 344.957031 211.339844 345.847656 211.476563 346.359375 210.976563 C 347.800781 209.570313 346.558594 207.363281 346.082031 205.75 C 345.011719 202.117188 343.644531 198.574219 342.039063 195.128906 C 338.582031 187.707031 333.855469 180.242188 327.425781 174.765625 C 327.199219 174.570313 326.804688 174.824219 326.988281 175.085938 C 330.636719 180.273438 334.472656 185.222656 337.480469 190.792969 C 339.203125 193.988281 340.714844 197.28125 341.960938 200.667969 C 342.492188 202.113281 344.933594 207.144531 344.714844 209.1875 C 344.285156 209.464844 344.136719 210.058594 344.40625 210.480469 "/>
<path style=" stroke:none;fill-rule:nonzero;fill:rgb(255%,255%,255%);fill-opacity:1;" d="M 321.972656 152.644531 C 321.644531 152.535156 321.441406 153.019531 321.738281 153.164063 C 330.425781 157.460938 337.214844 164.496094 340.507813 173.238281 C 340.960938 174.433594 342.894531 174.277344 342.902344 172.933594 C 342.949219 165.226563 340.089844 158.113281 336.449219 151.34375 C 340.222656 152.535156 343.644531 154.21875 346.972656 156.410156 C 347.777344 156.941406 348.53125 155.699219 347.738281 155.171875 C 343.671875 152.445313 339.273438 150.359375 334.613281 148.703125 C 333.636719 148.359375 333.066406 149.480469 333.398438 150.191406 C 335.921875 155.5625 338.523438 160.761719 339.746094 166.371094 C 335.730469 160.015625 329.6875 155.214844 321.972656 152.644531 "/>
<path style=" stroke:none;fill-rule:nonzero;fill:rgb(255%,255%,255%);fill-opacity:1;" d="M 218.320313 269.714844 C 225.6875 266.898438 230.5625 260.972656 234.09375 254.492188 C 234.136719 254.414063 234.015625 254.347656 233.96875 254.425781 C 226.425781 265.746094 213.644531 273.996094 200.15625 265.769531 C 199.203125 265.1875 198.179688 266.5 198.964844 267.226563 C 203.972656 271.839844 212.089844 272.097656 218.320313 269.714844 "/>
<path style=" stroke:none;fill-rule:nonzero;fill:rgb(255%,255%,255%);fill-opacity:1;" d="M 249.507813 244.605469 C 254.285156 240.355469 254.421875 233.039063 253.085938 227.445313 C 253.007813 227.132813 252.511719 227.265625 252.578125 227.578125 C 253.898438 233.863281 251.265625 238.484375 248.558594 243.917969 C 248.273438 244.492188 248.988281 245.066406 249.507813 244.605469 "/>
<path style=" stroke:none;fill-rule:nonzero;fill:rgb(255%,255%,255%);fill-opacity:1;" d="M 251.828125 348.894531 C 252.179688 337.945313 250.464844 327.355469 247.589844 316.773438 C 247.574219 316.71875 247.496094 316.742188 247.503906 316.796875 C 249.449219 327.40625 249.792969 338.152344 249.480469 348.894531 C 249.4375 350.324219 251.78125 350.316406 251.828125 348.894531 "/>
<path style=" stroke:none;fill-rule:nonzero;fill:rgb(255%,255%,255%);fill-opacity:1;" d="M 236.183594 357.078125 C 235.890625 367.402344 234.355469 376.546875 231.191406 386.421875 C 230.886719 387.382813 232.492188 388.050781 232.929688 387.113281 C 237.144531 378.046875 238.675781 366.746094 236.886719 356.988281 C 236.8125 356.601563 236.191406 356.714844 236.183594 357.078125 "/>
<path style=" stroke:none;fill-rule:nonzero;fill:rgb(255%,255%,255%);fill-opacity:1;" d="M 212.660156 411.0625 C 217.144531 405.644531 219.445313 397.171875 219.941406 390.429688 C 219.972656 390.035156 219.339844 389.984375 219.226563 390.339844 C 218.152344 393.769531 217.210938 397.21875 215.917969 400.585938 C 214.628906 403.9375 212.660156 407.046875 211.503906 410.425781 C 211.300781 411.015625 212.226563 411.585938 212.660156 411.0625 "/>
<path style=" stroke:none;fill-rule:nonzero;fill:rgb(255%,255%,255%);fill-opacity:1;" d="M 199.523438 411.644531 C 198.9375 413.269531 198.1875 414.820313 197.285156 416.3125 C 196.550781 417.527344 195.480469 418.613281 194.972656 419.925781 C 194.8125 420.339844 195.410156 420.792969 195.792969 420.519531 C 198.351563 418.707031 199.570313 414.65625 200.332031 411.851563 C 200.46875 411.355469 199.695313 411.164063 199.523438 411.644531 "/>
<path style=" stroke:none;fill-rule:nonzero;fill:rgb(255%,255%,255%);fill-opacity:1;" d="M 214.503906 386.519531 C 210.523438 380.460938 201.015625 380.054688 194.554688 381.792969 C 194.171875 381.898438 194.339844 382.402344 194.714844 382.34375 C 198.386719 381.777344 201.949219 382.300781 205.363281 383.640625 C 208.203125 384.753906 210.339844 386.570313 212.964844 387.96875 C 213.921875 388.476563 215.109375 387.4375 214.503906 386.519531 "/>
<path style=" stroke:none;fill-rule:nonzero;fill:rgb(255%,255%,255%);fill-opacity:1;" d="M 205.613281 394.75 C 206.121094 395.074219 206.863281 394.414063 206.484375 393.925781 C 204.15625 390.953125 199.722656 389.261719 196.0625 388.308594 C 195.726563 388.21875 195.617188 388.667969 195.921875 388.785156 C 197.804688 389.503906 199.609375 390.417969 201.285156 391.5 C 202.816406 392.488281 204.078125 393.785156 205.613281 394.75 "/>
<path style=" stroke:none;fill-rule:nonzero;fill:rgb(255%,255%,255%);fill-opacity:1;" d="M 194.109375 252.683594 C 194.050781 252.6875 194.035156 252.773438 194.097656 252.789063 C 200.03125 254.261719 205.734375 251.382813 210.300781 247.980469 C 217.683594 242.476563 222.867188 237.875 232.65625 236.808594 C 234.167969 236.644531 234.257813 234.519531 232.65625 234.519531 C 226.46875 234.523438 220.921875 236.820313 216.164063 240.46875 C 209.160156 245.839844 203.875 252.363281 194.109375 252.683594 "/>
<path style=" stroke:none;fill-rule:nonzero;fill:rgb(255%,255%,255%);fill-opacity:1;" d="M 213 252.878906 C 209.792969 255.03125 206.011719 256.273438 202.15625 254.800781 C 201.84375 254.679688 201.632813 255.175781 201.929688 255.3125 C 205.792969 257.078125 210.78125 256.832031 213.566406 253.410156 C 213.816406 253.101563 213.324219 252.65625 213 252.878906 "/>
<path style=" stroke:none;fill-rule:nonzero;fill:rgb(255%,255%,255%);fill-opacity:1;" d="M 206.886719 203.355469 C 210.453125 201.867188 213.742188 200.300781 217.53125 199.308594 C 218.46875 199.0625 218.070313 197.695313 217.132813 197.933594 C 213.433594 198.886719 209.410156 200.496094 206.601563 203.007813 C 206.394531 203.195313 206.660156 203.453125 206.886719 203.355469 "/>
<path style=" stroke:none;fill-rule:nonzero;fill:rgb(255%,255%,255%);fill-opacity:1;" d="M 191.824219 136.386719 C 191.832031 136.570313 192.113281 136.566406 192.128906 136.386719 C 192.390625 132.71875 193.695313 129.796875 195.066406 126.433594 C 195.234375 126.015625 194.585938 125.824219 194.351563 126.148438 C 192.257813 129.042969 191.695313 132.957031 191.824219 136.386719 "/>
<path style=" stroke:none;fill-rule:nonzero;fill:rgb(255%,255%,255%);fill-opacity:1;" d="M 195.433594 86.855469 C 201.828125 75.429688 213.632813 72.757813 225.285156 68 C 226.640625 67.445313 225.636719 65.519531 224.316406 65.832031 C 212.519531 68.617188 198.941406 75.027344 194.808594 86.609375 C 194.6875 86.957031 195.253906 87.175781 195.433594 86.855469 "/>
<path style=" stroke:none;fill-rule:nonzero;fill:rgb(255%,255%,255%);fill-opacity:1;" d="M 199.246094 68.480469 C 199.21875 59.65625 202.675781 51.644531 210.742188 46.730469 C 212.253906 45.8125 210.820313 43.882813 209.417969 44.59375 C 209.414063 44.589844 209.410156 44.582031 209.410156 44.578125 C 201.21875 49.84375 196.042969 59.214844 198.128906 68.625 C 198.261719 69.230469 199.25 69.074219 199.246094 68.480469 "/>
<path style=" stroke:none;fill-rule:nonzero;fill:rgb(255%,255%,255%);fill-opacity:1;" d="M 187.34375 374.121094 C 181.117188 369.0625 170.894531 372.625 163.59375 372.914063 C 158.050781 373.132813 151.945313 372.144531 148.8125 367.296875 C 146.285156 363.382813 145.421875 357.648438 147.015625 353.121094 C 147.089844 353.503906 147.160156 353.890625 147.253906 354.265625 C 148.148438 357.941406 150.328125 361.5 154.292969 362.796875 C 157.417969 363.816406 160.910156 363.316406 162.785156 360.828125 C 163.265625 361.1875 163.796875 361.484375 164.382813 361.703125 C 166.179688 362.371094 168.585938 362.074219 169.957031 360.800781 C 170.847656 362.027344 172 363 173.429688 363.394531 C 175.65625 364.007813 178.15625 362.796875 178.796875 360.875 C 178.988281 361.195313 179.191406 361.503906 179.421875 361.769531 C 180.921875 363.519531 185.816406 364.667969 186.351563 361.648438 C 186.953125 360.742188 187.203125 359.539063 187.34375 358.324219 C 187.480469 359.539063 187.730469 360.742188 188.335938 361.648438 C 188.867188 364.667969 193.761719 363.519531 195.261719 361.769531 C 195.492188 361.503906 195.695313 361.195313 195.886719 360.875 C 196.527344 362.796875 199.027344 364.007813 201.253906 363.394531 C 202.683594 363 203.835938 362.027344 204.726563 360.800781 C 206.101563 362.074219 208.507813 362.371094 210.300781 361.703125 C 210.886719 361.484375 211.417969 361.1875 211.898438 360.828125 C 213.773438 363.316406 217.265625 363.816406 220.390625 362.796875 C 224.355469 361.5 226.535156 357.941406 227.433594 354.265625 C 227.523438 353.890625 227.59375 353.503906 227.667969 353.121094 C 229.261719 357.648438 228.398438 363.382813 225.871094 367.296875 C 222.738281 372.144531 216.632813 373.132813 211.089844 372.914063 C 203.789063 372.625 193.566406 369.0625 187.34375 374.121094 M 155.59375 331.269531 C 154.582031 338.863281 155.886719 346.136719 159.804688 352.988281 C 159.757813 353.238281 159.71875 353.488281 159.699219 353.738281 C 159.527344 355.886719 160.28125 358.285156 161.824219 359.960938 C 158.074219 362.570313 152.976563 361.25 150.644531 357.382813 C 148.917969 354.523438 148.640625 350.933594 148.675781 347.71875 C 148.746094 341.542969 150.4375 335.199219 155.59375 331.269531 M 167.617188 353.992188 C 167.714844 355.695313 168.261719 357.878906 169.285156 359.730469 C 166.097656 361.699219 162.296875 359.546875 161.472656 355.78125 C 161.285156 354.925781 161.257813 353.972656 161.4375 353.070313 C 161.53125 352.925781 161.589844 352.761719 161.566406 352.582031 C 161.789063 351.832031 162.164063 351.132813 162.75 350.585938 C 164.367188 349.066406 167.125 349.730469 167.929688 351.585938 C 167.6875 352.367188 167.574219 353.1875 167.617188 353.992188 M 177.3125 359.523438 C 177.214844 359.925781 177.089844 360.332031 176.925781 360.734375 C 176.921875 360.746094 176.925781 360.753906 176.921875 360.765625 C 176.164063 361.667969 174.515625 361.984375 173.425781 361.527344 C 172.683594 361.210938 172 360.460938 171.550781 359.839844 C 171.335938 359.542969 171.144531 359.210938 170.957031 358.878906 C 170.941406 358.828125 170.914063 358.785156 170.878906 358.75 C 170.140625 357.398438 169.652344 355.84375 169.523438 354.394531 C 169.265625 351.542969 170.933594 348.0625 174.703125 349.621094 C 176.480469 350.355469 177.234375 351.984375 177.550781 353.683594 C 177.402344 354.785156 177.414063 355.957031 177.570313 357.09375 C 177.578125 357.683594 177.523438 358.261719 177.429688 358.839844 C 177.324219 358.988281 177.269531 359.175781 177.304688 359.398438 C 177.3125 359.441406 177.308594 359.480469 177.3125 359.523438 M 181.410156 348.183594 C 176.101563 344.882813 171.730469 341.550781 168.597656 335.980469 C 165.171875 329.886719 163.628906 322.835938 162.960938 316.015625 C 162.316406 309.460938 162.925781 301.992188 167.988281 296.960938 C 173.246094 291.734375 182.800781 291.339844 186.523438 298.230469 C 186.519531 298.246094 186.511719 298.257813 186.503906 298.273438 C 186.28125 298.777344 186.859375 299.171875 187.34375 299.128906 C 187.824219 299.171875 188.402344 298.777344 188.179688 298.273438 C 188.175781 298.257813 188.164063 298.246094 188.160156 298.230469 C 191.882813 291.339844 201.4375 291.734375 206.695313 296.960938 C 211.757813 301.992188 212.367188 309.460938 211.722656 316.015625 C 211.054688 322.835938 209.511719 329.886719 206.085938 335.980469 C 202.953125 341.550781 198.582031 344.882813 193.273438 348.183594 C 191.277344 347.429688 188.949219 347.8125 187.746094 349.9375 C 187.574219 350.238281 187.449219 350.554688 187.34375 350.878906 C 187.234375 350.554688 187.109375 350.238281 186.9375 349.9375 C 185.734375 347.8125 183.40625 347.429688 181.410156 348.183594 M 185.4375 361.042969 C 184.46875 361.523438 183.546875 362.066406 182.40625 361.796875 C 180.78125 361.410156 180.050781 359.683594 179.707031 358.3125 C 179.089844 355.832031 178.773438 350.359375 182.285156 349.734375 C 187.761719 348.757813 184.96875 357.351563 185.4375 361.042969 M 192.398438 349.734375 C 195.90625 350.359375 195.59375 355.832031 194.976563 358.3125 C 194.636719 359.683594 193.902344 361.410156 192.277344 361.796875 C 191.136719 362.066406 190.214844 361.523438 189.246094 361.042969 C 189.714844 357.351563 186.921875 348.757813 192.398438 349.734375 M 197.253906 358.839844 C 197.160156 358.261719 197.105469 357.683594 197.113281 357.09375 C 197.269531 355.957031 197.28125 354.785156 197.132813 353.683594 C 197.449219 351.984375 198.203125 350.355469 199.980469 349.621094 C 203.75 348.0625 205.421875 351.542969 205.160156 354.394531 C 205.03125 355.84375 204.542969 357.398438 203.808594 358.75 C 203.769531 358.785156 203.742188 358.828125 203.726563 358.878906 C 203.539063 359.210938 203.351563 359.542969 203.132813 359.839844 C 202.683594 360.460938 202 361.210938 201.257813 361.527344 C 200.171875 361.984375 198.519531 361.667969 197.761719 360.765625 C 197.757813 360.753906 197.761719 360.746094 197.757813 360.734375 C 197.597656 360.332031 197.46875 359.925781 197.371094 359.523438 C 197.375 359.480469 197.371094 359.441406 197.378906 359.398438 C 197.414063 359.175781 197.359375 358.988281 197.253906 358.839844 M 152.824219 300.722656 C 151.367188 297.027344 149.128906 293.121094 150.152344 289.136719 C 151.113281 290.628906 152.773438 291.628906 155.15625 291.878906 C 158.320313 292.210938 162.382813 290.902344 163.5625 288.132813 C 164.488281 289.621094 166.042969 289.835938 167.742188 289.992188 C 171.453125 290.335938 175.921875 290.054688 178.058594 287.148438 C 180.863281 288.53125 184.488281 287.359375 187.34375 286.058594 C 190.195313 287.359375 193.820313 288.53125 196.628906 287.148438 C 198.761719 290.054688 203.230469 290.335938 206.941406 289.992188 C 208.640625 289.835938 210.195313 289.621094 211.121094 288.132813 C 212.300781 290.902344 216.363281 292.210938 219.527344 291.878906 C 221.910156 291.628906 223.570313 290.628906 224.53125 289.136719 C 225.558594 293.121094 223.316406 297.027344 221.859375 300.722656 C 220.519531 304.117188 219.59375 307.554688 219.015625 311.132813 C 218.015625 317.328125 218.128906 323.667969 219.972656 329.707031 C 219.457031 329.347656 218.925781 329.007813 218.355469 328.703125 C 217.644531 328.328125 216.894531 328.949219 217.042969 329.65625 C 218.578125 336.929688 217.441406 344.148438 214.042969 350.738281 C 213.132813 349.183594 211.59375 348.042969 209.53125 348.160156 C 208.113281 348.238281 206.734375 348.902344 205.96875 349.914063 C 204.863281 348.226563 202.992188 347.132813 200.59375 347.65625 C 198.417969 348.132813 197.105469 349.585938 196.511719 351.339844 C 196.367188 350.996094 196.210938 350.667969 196.023438 350.375 C 195.65625 349.804688 195.179688 349.316406 194.640625 348.921875 C 210.472656 344.339844 216.089844 320.027344 213.878906 306.921875 C 212.710938 300.019531 207.898438 292.695313 200.058594 291.390625 C 194.957031 290.539063 189.9375 292.691406 187.34375 296.730469 C 184.746094 292.691406 179.726563 290.539063 174.625 291.390625 C 166.785156 292.695313 161.972656 300.019531 160.808594 306.921875 C 158.59375 320.027344 164.210938 344.339844 180.042969 348.921875 C 179.503906 349.316406 179.027344 349.804688 178.660156 350.375 C 178.472656 350.667969 178.316406 350.996094 178.171875 351.339844 C 177.578125 349.585938 176.265625 348.132813 174.089844 347.65625 C 171.691406 347.132813 169.820313 348.226563 168.714844 349.914063 C 167.949219 348.902344 166.570313 348.238281 165.152344 348.160156 C 163.089844 348.042969 161.550781 349.183594 160.640625 350.738281 C 157.242188 344.148438 156.105469 336.929688 157.640625 329.65625 C 157.789063 328.949219 157.039063 328.328125 156.328125 328.703125 C 155.757813 329.007813 155.226563 329.347656 154.710938 329.707031 C 156.554688 323.667969 156.667969 317.328125 155.667969 311.132813 C 155.089844 307.554688 154.164063 304.117188 152.824219 300.722656 M 146.863281 309.640625 C 142.375 305.113281 139.441406 299.472656 138.296875 293.261719 C 136.761719 284.9375 138.867188 277.300781 141.488281 269.492188 C 144.265625 272.210938 147.519531 274.398438 151.203125 275.773438 C 151.09375 275.832031 150.992188 275.914063 150.933594 276.050781 C 146.121094 286.789063 144.558594 298.28125 146.863281 309.640625 M 155.75 277.328125 C 156.089844 277.226563 156.429688 277.171875 156.765625 277.140625 C 157.359375 277.222656 157.960938 277.28125 158.570313 277.320313 C 160.480469 277.875 161.976563 279.523438 162.023438 281.539063 C 162.027344 281.730469 162.160156 281.859375 162.320313 281.917969 C 162.226563 282.972656 162.289063 284.160156 162.519531 285.304688 C 162.507813 285.347656 162.488281 285.390625 162.484375 285.441406 C 162.21875 289.6875 157.988281 291.226563 154.066406 290.277344 C 150.667969 289.453125 150.253906 286.15625 150.910156 283.347656 C 151.480469 280.921875 153.054688 278.140625 155.75 277.328125 M 164.257813 280.710938 C 164.800781 278.824219 166.34375 277.378906 168.089844 276.945313 C 168.289063 276.914063 168.488281 276.871094 168.6875 276.835938 C 169.929688 276.699219 171.226563 277.078125 172.316406 278.1875 C 173.738281 279.632813 174.285156 281.59375 175.027344 283.402344 C 175.273438 284.304688 175.695313 285.144531 176.351563 285.867188 C 176.488281 286.019531 176.632813 286.144531 176.777344 286.277344 C 175.101563 288.546875 171.589844 288.785156 168.695313 288.566406 C 166.742188 288.421875 165.484375 288.203125 164.613281 286.332031 C 163.867188 284.738281 163.785156 282.359375 164.257813 280.710938 M 176.867188 274.316406 C 176.800781 274.417969 176.75 274.523438 176.6875 274.628906 C 176.570313 274.632813 176.445313 274.660156 176.316406 274.734375 C 176.257813 274.769531 176.210938 274.8125 176.15625 274.851563 C 175.839844 274.882813 175.535156 275.082031 175.402344 275.355469 C 175.144531 275.371094 174.894531 275.492188 174.769531 275.714844 C 174.683594 275.582031 174.597656 275.453125 174.496094 275.335938 C 175.3125 275.035156 176.105469 274.699219 176.867188 274.316406 M 177.636719 277.070313 C 177.9375 276.367188 178.285156 275.722656 178.644531 275.179688 C 179.695313 273.585938 181.140625 272.238281 183.183594 272.9375 C 184.863281 273.511719 185.527344 275.046875 185.847656 276.628906 C 186.28125 278.757813 185.945313 280.867188 186.539063 282.890625 C 186.511719 283.21875 186.480469 283.539063 186.433594 283.839844 C 186.410156 283.972656 186.441406 284.09375 186.496094 284.203125 C 186.261719 284.328125 186.097656 284.546875 186.027344 284.78125 C 184.570313 285.410156 182.90625 285.972656 181.359375 286.023438 C 180.085938 284.984375 178.808594 284.246094 178.058594 282.671875 C 177.230469 280.941406 177.253906 279.140625 177.6875 277.3125 C 177.710938 277.21875 177.683594 277.136719 177.636719 277.070313 M 187.632813 274.054688 C 187.515625 274.3125 187.429688 274.589844 187.34375 274.867188 C 187.253906 274.589844 187.167969 274.3125 187.050781 274.054688 C 187.183594 273.960938 187.273438 273.832031 187.34375 273.6875 C 187.40625 273.832031 187.5 273.960938 187.632813 274.054688 M 187.34375 259.847656 C 187.445313 260.402344 187.566406 260.953125 187.710938 261.5 C 187.554688 261.542969 187.429688 261.652344 187.34375 261.796875 C 187.253906 261.652344 187.132813 261.542969 186.972656 261.5 C 187.117188 260.953125 187.238281 260.402344 187.34375 259.847656 M 188.835938 276.628906 C 189.15625 275.046875 189.820313 273.511719 191.5 272.9375 C 193.542969 272.238281 194.988281 273.585938 196.039063 275.179688 C 196.398438 275.722656 196.746094 276.367188 197.050781 277.070313 C 197 277.136719 196.972656 277.21875 196.996094 277.3125 C 197.433594 279.140625 197.453125 280.941406 196.625 282.671875 C 195.875 284.246094 194.597656 284.984375 193.324219 286.023438 C 191.777344 285.972656 190.113281 285.410156 188.65625 284.78125 C 188.589844 284.546875 188.421875 284.328125 188.1875 284.203125 C 188.242188 284.09375 188.273438 283.972656 188.25 283.839844 C 188.203125 283.539063 188.171875 283.21875 188.144531 282.890625 C 188.738281 280.867188 188.402344 278.757813 188.835938 276.628906 M 200.1875 275.335938 C 200.085938 275.453125 200 275.582031 199.914063 275.714844 C 199.789063 275.492188 199.539063 275.371094 199.28125 275.355469 C 199.148438 275.082031 198.84375 274.882813 198.527344 274.851563 C 198.472656 274.8125 198.425781 274.769531 198.367188 274.734375 C 198.238281 274.660156 198.113281 274.632813 197.996094 274.628906 C 197.933594 274.523438 197.882813 274.417969 197.816406 274.316406 C 198.578125 274.699219 199.371094 275.035156 200.1875 275.335938 M 205.996094 276.835938 C 206.195313 276.871094 206.394531 276.914063 206.59375 276.945313 C 208.339844 277.378906 209.882813 278.824219 210.425781 280.710938 C 210.898438 282.359375 210.816406 284.738281 210.070313 286.332031 C 209.199219 288.203125 207.941406 288.421875 205.988281 288.566406 C 203.097656 288.785156 199.582031 288.546875 197.90625 286.277344 C 198.050781 286.144531 198.195313 286.019531 198.335938 285.867188 C 198.988281 285.144531 199.410156 284.304688 199.65625 283.402344 C 200.398438 281.59375 200.945313 279.632813 202.367188 278.1875 C 203.457031 277.078125 204.753906 276.699219 205.996094 276.835938 M 212.363281 281.917969 C 212.523438 281.859375 212.65625 281.730469 212.660156 281.539063 C 212.707031 279.523438 214.203125 277.875 216.113281 277.320313 C 216.722656 277.28125 217.324219 277.222656 217.917969 277.140625 C 218.253906 277.171875 218.59375 277.226563 218.933594 277.328125 C 221.632813 278.140625 223.203125 280.921875 223.773438 283.347656 C 224.429688 286.15625 224.015625 289.453125 220.617188 290.277344 C 216.695313 291.226563 212.464844 289.6875 212.199219 285.441406 C 212.195313 285.390625 212.175781 285.347656 212.164063 285.304688 C 212.394531 284.160156 212.457031 282.972656 212.363281 281.917969 M 233.195313 269.492188 C 235.816406 277.300781 237.921875 284.9375 236.386719 293.261719 C 235.242188 299.472656 232.308594 305.113281 227.820313 309.640625 C 230.125 298.28125 228.5625 286.789063 223.753906 276.050781 C 223.691406 275.914063 223.589844 275.832031 223.480469 275.773438 C 227.164063 274.398438 230.417969 272.210938 233.195313 269.492188 M 206.753906 351.585938 C 207.558594 349.730469 210.316406 349.066406 211.933594 350.585938 C 212.519531 351.132813 212.894531 351.832031 213.117188 352.582031 C 213.097656 352.761719 213.152344 352.925781 213.246094 353.070313 C 213.425781 353.972656 213.398438 354.925781 213.210938 355.78125 C 212.386719 359.546875 208.585938 361.699219 205.398438 359.730469 C 206.425781 357.878906 206.96875 355.695313 207.066406 353.992188 C 207.109375 353.1875 206.996094 352.367188 206.753906 351.585938 M 226.007813 347.71875 C 226.042969 350.933594 225.765625 354.523438 224.039063 357.382813 C 221.707031 361.25 216.609375 362.570313 212.859375 359.960938 C 214.402344 358.285156 215.15625 355.886719 214.984375 353.738281 C 214.964844 353.488281 214.929688 353.238281 214.878906 352.988281 C 218.796875 346.136719 220.101563 338.863281 219.089844 331.269531 C 224.246094 335.199219 225.9375 341.542969 226.007813 347.71875 M 199.316406 373.707031 C 202.742188 373.945313 206.117188 374.640625 209.542969 374.890625 C 214.382813 375.246094 219.738281 374.976563 223.820313 372.222656 C 230.1875 367.933594 232.761719 356.441406 228.066406 350.246094 C 228.683594 342.960938 226.507813 334.714844 220.578125 330.15625 C 220.582031 330.136719 220.597656 330.125 220.597656 330.101563 C 219.84375 321.101563 219.851563 312.457031 222.84375 303.765625 C 223.996094 300.414063 225.796875 297.144531 226.488281 293.804688 C 226.957031 300.09375 226.320313 306.457031 224.617188 312.746094 C 224.304688 313.898438 225.742188 314.574219 226.632813 313.851563 C 240.132813 302.890625 242.25 283.363281 233.710938 268.964844 C 236.125 266.492188 238.167969 263.628906 239.789063 260.539063 C 261.007813 253.195313 262.714844 226.839844 254.671875 209.796875 C 254.0625 208.496094 251.746094 209.441406 252.25 210.757813 C 255.96875 220.425781 258.929688 229.941406 256.066406 240.257813 C 253.714844 248.71875 248.171875 255.757813 240.105469 259.925781 C 242.867188 254.4375 244.347656 248.339844 244.351563 242.683594 C 244.351563 241.40625 242.277344 241.109375 241.96875 242.378906 C 240.214844 249.609375 239.421875 256.527344 235.097656 262.984375 C 231.429688 268.457031 225.644531 273.007813 218.820313 274.371094 C 211.78125 275.777344 201.296875 274.890625 195.613281 270.523438 C 189.023438 265.457031 187.871094 257.574219 187.902344 250.054688 C 188.09375 249.945313 188.238281 249.769531 188.300781 249.570313 C 193.9375 245.671875 199.074219 241.578125 205.441406 238.640625 C 205.808594 238.46875 206.011719 238.222656 206.097656 237.953125 C 209.152344 237.589844 212.328125 235.367188 213.78125 232.71875 C 219.425781 230.3125 225.484375 222.96875 218.707031 218.570313 C 210.574219 213.296875 196.949219 214.640625 188.976563 219.316406 C 188.808594 219.414063 188.921875 219.65625 189.109375 219.613281 C 195.589844 218.234375 201.6875 217.445313 208.320313 218.296875 C 210.050781 218.515625 211.769531 218.804688 213.4375 219.300781 C 216.082031 220.089844 217.171875 220.285156 218.011719 223.027344 C 218.992188 226.21875 217.054688 228.808594 214.492188 230.839844 C 214.585938 230.371094 214.621094 229.902344 214.582031 229.433594 C 213.929688 221.617188 203.601563 224.277344 200.132813 228.359375 C 198.078125 230.773438 196.664063 234.359375 198.742188 237.148438 C 199.128906 237.664063 199.566406 238.070313 200.042969 238.390625 C 195.308594 240.925781 190.703125 244.03125 187.34375 247.980469 C 183.980469 244.03125 179.378906 240.925781 174.640625 238.390625 C 175.117188 238.070313 175.558594 237.664063 175.941406 237.148438 C 178.019531 234.359375 176.605469 230.773438 174.550781 228.359375 C 171.082031 224.277344 160.753906 221.617188 160.101563 229.433594 C 160.0625 229.902344 160.097656 230.371094 160.191406 230.839844 C 157.628906 228.808594 155.691406 226.21875 156.671875 223.027344 C 157.511719 220.285156 158.601563 220.089844 161.246094 219.300781 C 162.914063 218.804688 164.636719 218.515625 166.363281 218.296875 C 172.996094 217.445313 179.097656 218.234375 185.574219 219.613281 C 185.761719 219.65625 185.878906 219.414063 185.707031 219.316406 C 177.734375 214.640625 164.109375 213.296875 155.976563 218.570313 C 149.199219 222.96875 155.257813 230.3125 160.902344 232.71875 C 162.355469 235.367188 165.53125 237.589844 168.585938 237.953125 C 168.671875 238.222656 168.875 238.46875 169.242188 238.640625 C 175.609375 241.578125 180.746094 245.671875 186.386719 249.570313 C 186.445313 249.769531 186.59375 249.945313 186.78125 250.054688 C 186.8125 257.574219 185.660156 265.457031 179.070313 270.523438 C 173.386719 274.890625 162.902344 275.777344 155.863281 274.371094 C 149.039063 273.007813 143.253906 268.457031 139.589844 262.984375 C 135.265625 256.527344 134.46875 249.609375 132.714844 242.378906 C 132.40625 241.109375 130.332031 241.40625 130.332031 242.683594 C 130.335938 248.339844 131.816406 254.4375 134.578125 259.925781 C 126.515625 255.757813 120.972656 248.71875 118.617188 240.257813 C 115.753906 229.941406 118.714844 220.425781 122.433594 210.757813 C 122.9375 209.441406 120.621094 208.496094 120.011719 209.796875 C 111.96875 226.839844 113.679688 253.195313 134.894531 260.539063 C 136.515625 263.628906 138.558594 266.492188 140.972656 268.964844 C 132.433594 283.363281 134.550781 302.890625 148.050781 313.851563 C 148.941406 314.574219 150.378906 313.898438 150.066406 312.746094 C 148.363281 306.457031 147.726563 300.09375 148.195313 293.804688 C 148.886719 297.144531 150.6875 300.414063 151.839844 303.765625 C 154.832031 312.457031 154.839844 321.101563 154.089844 330.101563 C 154.085938 330.125 154.101563 330.136719 154.105469 330.15625 C 148.175781 334.714844 146 342.960938 146.617188 350.246094 C 141.921875 356.441406 144.496094 367.933594 150.863281 372.222656 C 154.945313 374.976563 160.300781 375.246094 165.140625 374.890625 C 168.566406 374.640625 171.941406 373.945313 175.367188 373.707031 C 179.519531 373.414063 183.210938 374.15625 187.300781 374.75 C 187.316406 374.75 187.328125 374.742188 187.34375 374.742188 C 187.355469 374.742188 187.367188 374.75 187.382813 374.75 C 191.472656 374.15625 195.164063 373.414063 199.316406 373.707031 "/>
<path style=" stroke:none;fill-rule:nonzero;fill:rgb(255%,255%,255%);fill-opacity:1;" d="M 133.34375 179.839844 C 142.421875 178.90625 151.421875 181.5 158.320313 186.882813 C 148.179688 183.011719 134.976563 184.398438 126.808594 191.148438 C 126.3125 191.554688 126.949219 192.292969 127.5 191.992188 C 138.351563 186.082031 148.828125 184.71875 160.367188 188.628906 C 161.050781 189.257813 161.71875 189.910156 162.351563 190.605469 C 166.957031 195.671875 172.453125 205.554688 180.804688 205.203125 C 184.003906 205.070313 186.058594 203.628906 187.34375 201.585938 C 188.625 203.628906 190.679688 205.070313 193.882813 205.203125 C 202.234375 205.554688 207.726563 195.671875 212.335938 190.605469 C 212.964844 189.910156 213.632813 189.257813 214.320313 188.628906 C 225.859375 184.71875 236.332031 186.082031 247.1875 191.992188 C 247.738281 192.292969 248.371094 191.554688 247.878906 191.148438 C 239.707031 184.398438 226.507813 183.011719 216.363281 186.882813 C 223.265625 181.5 232.261719 178.90625 241.339844 179.839844 C 252.652344 181 261.160156 187.425781 268.457031 195.164063 C 269 195.738281 269.953125 194.992188 269.5625 194.359375 C 261.789063 181.757813 244.890625 175.007813 229.867188 177.828125 C 221.875 179.328125 214.972656 183.4375 209.789063 189.316406 C 206.769531 192.738281 204.199219 196.585938 200.636719 199.550781 C 197.011719 202.5625 191.574219 203.867188 188.535156 199.308594 C 188.503906 199.257813 188.476563 199.203125 188.445313 199.152344 C 189.335938 196.339844 189.320313 193.042969 188.9375 190.371094 C 188.894531 190.078125 188.460938 190.1875 188.433594 190.4375 C 188.214844 192.351563 187.984375 194.636719 187.34375 196.683594 C 186.703125 194.636719 186.472656 192.351563 186.253906 190.4375 C 186.222656 190.1875 185.789063 190.078125 185.746094 190.371094 C 185.363281 193.042969 185.351563 196.339844 186.238281 199.152344 C 186.207031 199.203125 186.183594 199.257813 186.152344 199.308594 C 183.113281 203.867188 177.675781 202.5625 174.050781 199.550781 C 170.484375 196.585938 167.917969 192.738281 164.898438 189.316406 C 159.714844 183.4375 152.808594 179.328125 144.816406 177.828125 C 129.792969 175.007813 112.894531 181.757813 105.121094 194.359375 C 104.730469 194.992188 105.683594 195.738281 106.226563 195.164063 C 113.523438 187.425781 122.035156 181 133.34375 179.839844 "/>
<path style=" stroke:none;fill-rule:nonzero;fill:rgb(255%,255%,255%);fill-opacity:1;" d="M 185.230469 210.886719 C 185.519531 210.984375 185.65625 210.589844 185.429688 210.441406 C 179.660156 206.714844 172.699219 205.519531 165.804688 206.496094 C 159.980469 207.320313 152.167969 209.957031 148.9375 214.925781 C 148.386719 215.769531 149.457031 216.664063 150.320313 216.230469 C 155.839844 213.453125 159.90625 210.113281 166.347656 209.007813 C 172.761719 207.90625 179.148438 208.824219 185.230469 210.886719 "/>
<path style=" stroke:none;fill-rule:nonzero;fill:rgb(255%,255%,255%);fill-opacity:1;" d="M 100.398438 147.972656 C 102.105469 148.148438 103.746094 148.441406 105.359375 148.789063 C 103.398438 155.855469 107.542969 164.109375 114.246094 167.582031 C 120.839844 170.992188 132.203125 169.089844 132.316406 160.707031 C 135.894531 162.613281 139.539063 164.4375 143.394531 165.929688 C 140.9375 166.175781 138.496094 166.851563 136.097656 167.601563 C 130.289063 169.417969 124.601563 171.402344 118.378906 171.367188 C 104.488281 171.285156 95.828125 158.6875 91.957031 147.382813 C 94.839844 147.535156 97.679688 147.691406 100.398438 147.972656 M 106.367188 148.996094 C 114.988281 151.058594 122.40625 155.332031 129.988281 159.453125 C 128.339844 167.925781 118.660156 169.789063 112 164.488281 C 106.890625 160.417969 105.699219 154.828125 106.367188 148.996094 M 89.546875 147.253906 C 90.269531 153.121094 94.054688 158.207031 97.773438 162.796875 C 101.015625 166.804688 104.71875 170.480469 109.859375 172.226563 C 122.675781 176.570313 134.695313 168.496094 147.261719 167.273438 C 157.953125 170.484375 172.023438 169.625 178.328125 159.585938 C 184.75 149.359375 177.859375 136.386719 170.1875 128.652344 C 170.117188 128.585938 170.015625 128.6875 170.078125 128.757813 C 178.398438 138.316406 184.984375 154.898438 170.933594 163.152344 C 158.4375 170.5 143.996094 163.925781 132.777344 157.648438 C 122.363281 151.820313 112.671875 146.523438 100.398438 145.289063 C 86.347656 143.882813 71.574219 145.101563 60.132813 135.75 C 59.300781 135.070313 58.253906 136.089844 58.9375 136.878906 C 66.5 145.570313 78.203125 146.632813 89.546875 147.253906 "/>
<path style=" stroke:none;fill-rule:nonzero;fill:rgb(255%,255%,255%);fill-opacity:1;" d="M 129.890625 141.503906 C 128.503906 135.785156 126.195313 130.078125 122.183594 125.527344 C 121.984375 125.304688 121.550781 125.542969 121.660156 125.8125 C 123.277344 129.941406 124.960938 133.941406 126.257813 138.117188 C 120.335938 133.128906 113.878906 128.453125 106.226563 126.257813 C 96.21875 123.382813 84.203125 124.953125 73.917969 125.378906 C 73.390625 125.398438 73.167969 125.867188 73.363281 126.289063 C 74.390625 128.550781 75.414063 130.8125 76.449219 133.066406 C 77.339844 135.019531 79.585938 136.855469 75.667969 137.023438 C 71.648438 137.191406 66.8125 134.796875 63.21875 133.429688 C 62.929688 133.316406 62.738281 133.761719 63.007813 133.898438 C 68.0625 136.507813 73.550781 137.773438 79.25 138.371094 C 79.5625 138.402344 79.867188 138.027344 79.75 137.753906 C 78.660156 135.183594 77.539063 132.632813 76.414063 130.078125 C 74.773438 126.355469 76.039063 126.617188 80 126.59375 C 85.75 126.558594 91.570313 126.21875 97.308594 126.632813 C 109.761719 127.527344 118.988281 134.957031 127.703125 142.703125 C 128.671875 143.566406 130.183594 142.707031 129.890625 141.503906 "/>
<path style=" stroke:none;fill-rule:nonzero;fill:rgb(255%,255%,255%);fill-opacity:1;" d="M 173.40625 150.808594 C 170.984375 140.738281 160.734375 133.699219 150.125 132.886719 C 149.550781 132.839844 149.109375 133.558594 149.441406 134.007813 C 152.253906 137.789063 153.828125 141.816406 154.246094 146.207031 C 147.5625 135.46875 135.773438 127.265625 122.613281 125.507813 C 122.535156 125.496094 122.503906 125.597656 122.578125 125.617188 C 136.914063 129.328125 148.203125 137.550781 154.476563 150.421875 C 154.890625 151.273438 156.230469 150.796875 156.253906 149.96875 C 156.394531 144.363281 154.851563 139.199219 151.703125 134.539063 C 161.730469 135.792969 168.914063 142.15625 172.535156 151.035156 C 172.738281 151.542969 173.539063 151.355469 173.40625 150.808594 "/>
<path style=" stroke:none;fill-rule:nonzero;fill:rgb(255%,255%,255%);fill-opacity:1;" d="M 179.972656 164.707031 C 183.847656 169.410156 185.878906 175.039063 185.675781 181.011719 C 185.664063 181.242188 186.070313 181.304688 186.113281 181.066406 C 187.226563 174.664063 185.609375 168.542969 181.28125 163.46875 C 180.53125 162.585938 179.25 163.835938 179.972656 164.707031 "/>
<path style=" stroke:none;fill-rule:nonzero;fill:rgb(255%,255%,255%);fill-opacity:1;" d="M 162.945313 172.0625 C 161.476563 171.773438 160.878906 173.941406 162.328125 174.167969 C 169.785156 175.335938 175.554688 179.21875 179.207031 185.488281 C 179.238281 185.539063 179.332031 185.503906 179.308594 185.445313 C 176.796875 178.742188 170.332031 173.511719 162.945313 172.0625 "/>
<path style=" stroke:none;fill-rule:nonzero;fill:rgb(255%,255%,255%);fill-opacity:1;" d="M 93.988281 211.710938 C 93.992188 209.199219 94.007813 206.691406 94.039063 204.179688 C 96.277344 209.261719 99.804688 213.65625 104.234375 217.335938 C 105.25 218.175781 106.746094 216.765625 105.722656 215.933594 C 100.363281 211.574219 96.753906 206.410156 93.996094 200.3125 C 93.730469 199.726563 92.6875 200.027344 92.730469 200.636719 C 92.882813 202.789063 93.015625 204.941406 93.136719 207.097656 C 93.234375 208.816406 94.097656 210.464844 92.34375 209.445313 C 89.878906 208.015625 87.351563 202.382813 85.914063 199.949219 C 81.175781 191.9375 78.191406 183.007813 79.738281 173.777344 C 79.816406 173.3125 79.300781 173.003906 78.90625 173.320313 C 75.683594 175.894531 73.324219 178.816406 71.203125 182.015625 C 71.714844 177.683594 72.167969 173.382813 73.449219 169.089844 C 75.238281 163.101563 78.304688 157.707031 80.558594 151.90625 C 80.675781 151.605469 80.21875 151.375 80 151.597656 C 71.792969 159.902344 66.746094 175.898438 68.21875 187.132813 C 68.363281 188.242188 70.164063 188.722656 70.476563 187.421875 C 71.109375 184.765625 72.28125 182.324219 73.914063 180.078125 C 74.332031 179.503906 77.726563 174.859375 78.460938 175.117188 C 78.253906 175.046875 78.910156 185.398438 79.226563 186.636719 C 81.605469 196.035156 87.792969 203.980469 93.417969 211.855469 C 93.582031 212.085938 93.988281 212.011719 93.988281 211.710938 "/>
<path style=" stroke:none;fill-rule:nonzero;fill:rgb(255%,255%,255%);fill-opacity:1;" d="M 13.597656 28.640625 C 8.488281 41.363281 8.6875 57.65625 12.84375 70.574219 C 16.234375 81.113281 23.519531 93.148438 34.367188 98.242188 C 35.195313 98.632813 36.199219 97.605469 35.414063 96.960938 C 30.511719 92.917969 25.917969 89.371094 22.226563 84.203125 C 18.808594 79.417969 16.316406 74.058594 14.710938 68.5 C 11.015625 55.683594 13.164063 43.925781 14.71875 31.214844 C 20.054688 44.273438 33.148438 54.449219 46.78125 59.433594 C 42.730469 60.765625 38.585938 61.25 34.246094 60.714844 C 33.40625 60.609375 32.890625 61.835938 33.539063 62.328125 C 48.320313 73.625 67.769531 78.285156 86.34375 74.707031 C 83.949219 76.40625 81.3125 77.605469 78.257813 78.414063 C 77.402344 78.644531 77.351563 79.898438 78.257813 80.101563 C 96.960938 84.261719 116.460938 72.867188 134.503906 80.753906 C 134.566406 80.78125 134.621094 80.695313 134.558594 80.660156 C 118.359375 72.015625 99.480469 81.226563 82.066406 78.988281 C 85.15625 77.738281 87.871094 75.984375 90.378906 73.679688 C 91.066406 73.050781 90.347656 72.058594 89.484375 72.234375 C 71.328125 75.929688 52.628906 72.539063 37.414063 62.652344 C 41.691406 62.570313 45.6875 61.820313 49.785156 60.152344 C 50.566406 59.832031 50.21875 58.808594 49.570313 58.589844 C 33.585938 53.234375 23.535156 42.710938 15.316406 29.175781 C 15.234375 29.046875 15.117188 28.96875 14.992188 28.925781 C 14.996094 28.890625 15 28.855469 15.003906 28.820313 C 15.09375 28.011719 13.859375 27.980469 13.597656 28.640625 "/>
<path style=" stroke:none;fill-rule:nonzero;fill:rgb(255%,255%,255%);fill-opacity:1;" d="M 60.421875 88.28125 C 61.300781 88.417969 62.191406 87.40625 61.382813 86.730469 C 58.511719 84.332031 55.386719 82.613281 51.886719 81.464844 C 56.285156 80.171875 60.75 79.226563 65.351563 78.667969 C 66.644531 78.511719 66.667969 76.574219 65.351563 76.726563 C 59.417969 77.40625 53.730469 78.664063 48.101563 80.582031 C 47.210938 80.882813 47.03125 82.234375 48.101563 82.464844 C 51.726563 83.238281 54.859375 84.542969 57.792969 86.46875 C 54.4375 86.511719 51.121094 86.710938 47.800781 87.394531 C 42.753906 88.433594 38.15625 90.796875 32.878906 90.589844 C 32.28125 90.566406 32.15625 91.4375 32.738281 91.570313 C 36.519531 92.4375 40.296875 93.300781 44.117188 94.003906 C 44.363281 94.050781 44.464844 93.722656 44.222656 93.648438 C 41.753906 92.898438 39.261719 92.167969 36.753906 91.539063 C 37.710938 91.449219 38.945313 91.046875 39.6875 90.855469 C 46.660156 89.0625 53.0625 87.132813 60.421875 88.28125 "/>
<path style=" stroke:none;fill-rule:nonzero;fill:rgb(255%,255%,255%);fill-opacity:1;" d="M 118.78125 93.441406 C 124.738281 97.046875 130.207031 101.242188 135.3125 105.828125 C 127.652344 102.746094 119.652344 100.753906 111.234375 100.195313 C 98.816406 99.371094 84.082031 100.761719 76.617188 89.230469 C 75.996094 88.273438 74.507813 89.113281 75.035156 90.105469 C 79.539063 98.574219 89.808594 101.070313 99.089844 101.65625 C 113.625 102.574219 126.714844 103.265625 139.832031 110.015625 C 140.910156 110.566406 141.929688 109.28125 141.121094 108.4375 C 135.847656 102.910156 130 98.132813 123.683594 93.789063 C 142.75 95.113281 160.5 103.839844 172.28125 118.261719 C 173.128906 119.296875 175.179688 118.777344 174.703125 117.300781 C 172.136719 109.28125 168.871094 101.496094 164.84375 94.046875 C 171.925781 100.476563 177.515625 108.25 181.140625 116.933594 C 181.332031 117.390625 182.117188 117.207031 181.9375 116.726563 C 177.847656 105.683594 171.152344 96.300781 161.734375 88.671875 C 160.792969 87.90625 159.382813 88.855469 159.992188 89.9375 C 164.019531 97.105469 167.441406 104.460938 170.183594 112.105469 C 157.160156 98.890625 138.761719 91.09375 119.425781 91.203125 C 118.128906 91.214844 117.734375 92.808594 118.78125 93.441406 "/>
<path style=" stroke:none;fill-rule:nonzero;fill:rgb(255%,255%,255%);fill-opacity:1;" d="M 92.917969 273.453125 C 91.582031 263.089844 86.691406 253.648438 79.40625 245.863281 C 78.945313 245.367188 77.949219 245.613281 77.808594 246.261719 C 76.945313 250.191406 75.839844 254.035156 74.503906 257.835938 C 66.496094 245.21875 62.800781 230.890625 63.917969 216.152344 C 63.988281 215.257813 62.832031 215.042969 62.230469 215.492188 C 57.71875 218.859375 53.683594 222.601563 50.050781 226.761719 C 50.496094 216.609375 53.835938 207.371094 59.078125 198.410156 C 59.355469 197.9375 58.652344 197.578125 58.324219 197.996094 C 51.179688 207.050781 48.039063 218.257813 48.039063 229.445313 C 48.039063 230.171875 49.164063 230.753906 49.703125 230.09375 C 53.320313 225.695313 57.328125 221.753906 61.824219 218.199219 C 61.101563 233.203125 65.226563 247.890625 73.90625 260.554688 C 74.390625 261.261719 75.460938 261.105469 75.746094 260.328125 C 77.171875 256.425781 78.328125 252.480469 79.253906 248.457031 C 85.71875 255.761719 89.464844 264.261719 91.148438 273.675781 C 91.316406 274.609375 93.039063 274.402344 92.917969 273.453125 "/>
<path style=" stroke:none;fill-rule:nonzero;fill:rgb(255%,255%,255%);fill-opacity:1;" d="M 152.527344 200.386719 C 152.65625 200.464844 152.761719 200.277344 152.644531 200.195313 C 143.957031 193.90625 130.753906 199.277344 128.710938 209.335938 C 128.464844 210.539063 130.128906 211.304688 130.855469 210.191406 C 133.097656 206.738281 134.621094 203.304688 138.3125 200.878906 C 142.652344 198.027344 148.046875 197.632813 152.527344 200.386719 "/>
<path style=" stroke:none;fill-rule:nonzero;fill:rgb(255%,255%,255%);fill-opacity:1;" d="M 33.792969 18.316406 C 38.492188 22.296875 41.578125 27.0625 45.140625 31.875 C 45.648438 32.566406 47.054688 32.167969 46.691406 31.257813 C 42.078125 19.714844 28.863281 11.714844 16.75 8.664063 C 16.507813 8.601563 16.410156 8.945313 16.648438 9.019531 C 23.027344 11.015625 28.789063 14.074219 33.792969 18.316406 "/>
<path style=" stroke:none;fill-rule:nonzero;fill:rgb(255%,255%,255%);fill-opacity:1;" d="M 76.742188 53.117188 C 77.351563 54.007813 78.695313 53.234375 78.230469 52.296875 C 74.84375 45.472656 68.28125 39.957031 61.558594 36.121094 C 61.070313 35.839844 60.644531 36.542969 61.113281 36.839844 C 67.917969 41.144531 72.382813 46.714844 76.742188 53.117188 "/>
<path style=" stroke:none;fill-rule:nonzero;fill:rgb(255%,255%,255%);fill-opacity:1;" d="M 120.429688 61.523438 C 110.414063 57.410156 100.625 54.050781 91.695313 47.886719 C 91.347656 47.648438 90.882813 48.207031 91.226563 48.460938 C 99.546875 54.5625 109.347656 60.75 119.847656 62.824219 C 120.628906 62.980469 121.257813 61.863281 120.429688 61.523438 "/>
<path style=" stroke:none;fill-rule:nonzero;fill:rgb(255%,255%,255%);fill-opacity:1;" d="M 125.816406 113.035156 C 126.914063 113.476563 127.839844 112.121094 126.773438 111.488281 C 112.558594 103.011719 93.644531 111.34375 79.628906 101.890625 C 79.429688 101.757813 79.171875 102.066406 79.363281 102.214844 C 84.683594 106.261719 90.972656 107.882813 97.671875 108.574219 C 107.457031 109.589844 116.542969 109.300781 125.816406 113.035156 "/>
<path style=" stroke:none;fill-rule:nonzero;fill:rgb(255%,255%,255%);fill-opacity:1;" d="M 162.3125 116.011719 C 163.007813 116.757813 164.167969 115.660156 163.46875 114.925781 C 157.707031 108.863281 150.40625 104.886719 142.089844 102.84375 C 141.636719 102.730469 141.445313 103.378906 141.894531 103.503906 C 149.910156 105.746094 156.800781 110.121094 162.3125 116.011719 "/>
<path style=" stroke:none;fill-rule:nonzero;fill:rgb(255%,255%,255%);fill-opacity:1;" d="M 86.78125 130.390625 C 86.398438 130.480469 86.558594 131.027344 86.945313 130.949219 C 98.355469 128.582031 109.710938 131.832031 118.097656 139.464844 C 118.953125 140.242188 120.269531 139.003906 119.402344 138.230469 C 110.667969 130.445313 98.414063 127.632813 86.78125 130.390625 "/>
<path style=" stroke:none;fill-rule:nonzero;fill:rgb(255%,255%,255%);fill-opacity:1;" d="M 144.496094 144.703125 C 144.914063 145.46875 146.117188 144.796875 145.710938 144.035156 C 142.628906 138.234375 136.8125 134.292969 130.097656 133.058594 C 129.59375 132.964844 129.371094 133.679688 129.882813 133.789063 C 136.367188 135.207031 141.453125 139.164063 144.496094 144.703125 "/>
<path style=" stroke:none;fill-rule:nonzero;fill:rgb(255%,255%,255%);fill-opacity:1;" d="M 159.574219 140.433594 C 158.996094 140.199219 158.488281 140.941406 159.066406 141.253906 C 160.902344 142.246094 162.515625 143.535156 163.835938 145.101563 C 165.105469 146.609375 165.6875 148.335938 166.679688 149.972656 C 167.191406 150.820313 168.363281 150.203125 168.230469 149.355469 C 167.617188 145.371094 163.242188 141.933594 159.574219 140.433594 "/>
<path style=" stroke:none;fill-rule:nonzero;fill:rgb(255%,255%,255%);fill-opacity:1;" d="M 81.6875 158.296875 C 80.007813 162.253906 78.097656 166.097656 76.542969 170.109375 C 76.21875 170.949219 77.621094 171.296875 77.957031 170.476563 C 79.578125 166.515625 80.8125 162.453125 82.300781 158.453125 C 82.4375 158.085938 81.835938 157.941406 81.6875 158.296875 "/>
<path style=" stroke:none;fill-rule:nonzero;fill:rgb(255%,255%,255%);fill-opacity:1;" d="M 85.105469 180.3125 C 83.878906 187.0625 84.960938 193.710938 88.675781 199.640625 C 89.167969 200.425781 90.421875 199.730469 89.96875 198.925781 C 86.71875 193.144531 85.238281 186.964844 85.90625 180.414063 C 85.949219 179.984375 85.183594 179.882813 85.105469 180.3125 "/>
<path style=" stroke:none;fill-rule:nonzero;fill:rgb(255%,255%,255%);fill-opacity:1;" d="M 97.828125 199.765625 C 97.628906 199.253906 96.777344 199.453125 96.945313 199.996094 C 97.339844 201.292969 97.871094 202.539063 98.574219 203.71875 C 99.167969 204.71875 99.933594 206.097656 101.09375 206.585938 C 101.421875 206.722656 101.914063 206.488281 101.769531 206.097656 C 101.378906 205.046875 100.367188 204.246094 99.71875 203.324219 C 98.933594 202.214844 98.3125 201.019531 97.828125 199.765625 "/>
<path style=" stroke:none;fill-rule:nonzero;fill:rgb(255%,255%,255%);fill-opacity:1;" d="M 48.648438 268.519531 C 49.132813 269.910156 49.347656 272.882813 51.359375 273.171875 C 51.976563 273.257813 52.445313 272.945313 52.503906 272.347656 C 52.515625 272.25 52.523438 272.152344 52.53125 272.054688 C 52.570313 271.664063 52.214844 271.398438 51.847656 271.320313 C 50.324219 269.371094 49.6875 264.769531 48.945313 262.621094 C 47.820313 259.355469 46.75 256.078125 45.808594 252.761719 C 43.699219 245.316406 42.417969 237.785156 42.496094 230.066406 C 42.5 229.535156 41.671875 229.546875 41.636719 230.066406 C 41 238.847656 42.324219 247.476563 44.652344 255.96875 C 45.808594 260.199219 47.203125 264.367188 48.648438 268.519531 "/>
<path style=" stroke:none;fill-rule:nonzero;fill:rgb(255%,255%,255%);fill-opacity:1;" d="M 71.382813 266.363281 C 71.179688 265.878906 70.484375 266.066406 70.5625 266.574219 C 71.710938 273.925781 75.453125 283.359375 81.1875 288.636719 C 81.855469 289.25 82.800781 288.480469 82.425781 287.734375 C 80.734375 284.359375 78.246094 281.34375 76.46875 277.976563 C 74.484375 274.21875 72.992188 270.273438 71.382813 266.363281 "/>
<path style=" stroke:none;fill-rule:nonzero;fill:rgb(255%,255%,255%);fill-opacity:1;" d="M 109.585938 289.070313 C 111.808594 291.691406 112.828125 294.707031 114.601563 297.539063 C 114.96875 298.121094 116.175781 297.929688 116.070313 297.160156 C 115.15625 290.394531 108.222656 284.867188 102.1875 282.011719 C 101.789063 281.820313 101.449219 282.355469 101.835938 282.574219 C 104.804688 284.238281 107.433594 286.527344 109.585938 289.070313 "/>
<path style=" stroke:none;fill-rule:nonzero;fill:rgb(255%,255%,255%);fill-opacity:1;" d="M 37.207031 190.796875 C 40.214844 185.222656 44.046875 180.273438 47.695313 175.085938 C 47.878906 174.824219 47.484375 174.574219 47.257813 174.765625 C 40.828125 180.246094 36.101563 187.707031 32.648438 195.128906 C 31.039063 198.578125 29.671875 202.117188 28.605469 205.75 C 28.128906 207.363281 26.882813 209.574219 28.324219 210.980469 C 28.839844 211.480469 29.726563 211.339844 30.097656 210.761719 C 30.15625 210.667969 30.21875 210.574219 30.277344 210.480469 C 30.546875 210.058594 30.398438 209.464844 29.96875 209.1875 C 29.753906 207.144531 32.191406 202.117188 32.722656 200.671875 C 33.96875 197.28125 35.480469 193.992188 37.207031 190.796875 "/>
<path style=" stroke:none;fill-rule:nonzero;fill:rgb(255%,255%,255%);fill-opacity:1;" d="M 34.175781 173.238281 C 37.46875 164.496094 44.257813 157.460938 52.945313 153.164063 C 53.242188 153.019531 53.039063 152.535156 52.710938 152.644531 C 44.996094 155.214844 38.953125 160.015625 34.9375 166.371094 C 36.160156 160.761719 38.761719 155.5625 41.285156 150.191406 C 41.617188 149.480469 41.046875 148.355469 40.074219 148.703125 C 35.40625 150.359375 31.011719 152.445313 26.945313 155.171875 C 26.15625 155.699219 26.90625 156.941406 27.710938 156.410156 C 31.039063 154.21875 34.460938 152.535156 38.234375 151.34375 C 34.597656 158.113281 31.734375 165.226563 31.78125 172.933594 C 31.789063 174.277344 33.726563 174.429688 34.175781 173.238281 "/>
<path style=" stroke:none;fill-rule:nonzero;fill:rgb(255%,255%,255%);fill-opacity:1;" d="M 156.363281 269.714844 C 162.59375 272.097656 170.714844 271.839844 175.71875 267.226563 C 176.507813 266.5 175.480469 265.1875 174.527344 265.769531 C 161.039063 273.996094 148.261719 265.746094 140.71875 254.425781 C 140.667969 254.347656 140.546875 254.414063 140.589844 254.492188 C 144.121094 260.972656 148.996094 266.898438 156.363281 269.714844 "/>
<path style=" stroke:none;fill-rule:nonzero;fill:rgb(255%,255%,255%);fill-opacity:1;" d="M 121.601563 227.445313 C 120.261719 233.039063 120.398438 240.355469 125.175781 244.605469 C 125.695313 245.066406 126.410156 244.492188 126.125 243.914063 C 123.421875 238.484375 120.785156 233.863281 122.105469 227.578125 C 122.171875 227.269531 121.675781 227.132813 121.601563 227.445313 "/>
<path style=" stroke:none;fill-rule:nonzero;fill:rgb(255%,255%,255%);fill-opacity:1;" d="M 127.09375 316.773438 C 124.21875 327.355469 122.503906 337.945313 122.855469 348.894531 C 122.902344 350.316406 125.246094 350.324219 125.203125 348.894531 C 124.890625 338.152344 125.234375 327.40625 127.179688 316.796875 C 127.191406 316.742188 127.109375 316.71875 127.09375 316.773438 "/>
<path style=" stroke:none;fill-rule:nonzero;fill:rgb(255%,255%,255%);fill-opacity:1;" d="M 137.796875 356.988281 C 136.007813 366.746094 137.539063 378.046875 141.753906 387.113281 C 142.1875 388.046875 143.796875 387.382813 143.492188 386.421875 C 140.328125 376.546875 138.792969 367.402344 138.503906 357.078125 C 138.492188 356.71875 137.871094 356.601563 137.796875 356.988281 "/>
<path style=" stroke:none;fill-rule:nonzero;fill:rgb(255%,255%,255%);fill-opacity:1;" d="M 155.457031 390.339844 C 155.34375 389.984375 154.714844 390.03125 154.742188 390.429688 C 155.238281 397.171875 157.539063 405.644531 162.023438 411.0625 C 162.457031 411.585938 163.386719 411.015625 163.183594 410.425781 C 162.023438 407.046875 160.054688 403.941406 158.765625 400.585938 C 157.472656 397.21875 156.535156 393.769531 155.457031 390.339844 "/>
<path style=" stroke:none;fill-rule:nonzero;fill:rgb(255%,255%,255%);fill-opacity:1;" d="M 178.890625 420.523438 C 179.273438 420.792969 179.871094 420.339844 179.710938 419.925781 C 179.203125 418.613281 178.136719 417.527344 177.402344 416.3125 C 176.496094 414.820313 175.75 413.269531 175.160156 411.644531 C 174.988281 411.164063 174.21875 411.355469 174.351563 411.851563 C 175.117188 414.65625 176.335938 418.707031 178.890625 420.523438 "/>
<path style=" stroke:none;fill-rule:nonzero;fill:rgb(255%,255%,255%);fill-opacity:1;" d="M 180.132813 381.792969 C 173.667969 380.054688 164.160156 380.460938 160.183594 386.519531 C 159.574219 387.4375 160.761719 388.476563 161.71875 387.96875 C 164.34375 386.570313 166.480469 384.757813 169.320313 383.640625 C 172.734375 382.300781 176.296875 381.777344 179.972656 382.34375 C 180.347656 382.402344 180.515625 381.898438 180.132813 381.792969 "/>
<path style=" stroke:none;fill-rule:nonzero;fill:rgb(255%,255%,255%);fill-opacity:1;" d="M 178.621094 388.308594 C 174.964844 389.261719 170.527344 390.953125 168.199219 393.929688 C 167.820313 394.414063 168.5625 395.074219 169.070313 394.75 C 170.605469 393.785156 171.867188 392.488281 173.398438 391.5 C 175.074219 390.417969 176.882813 389.503906 178.761719 388.785156 C 179.066406 388.667969 178.957031 388.21875 178.621094 388.308594 "/>
<path style=" stroke:none;fill-rule:nonzero;fill:rgb(255%,255%,255%);fill-opacity:1;" d="M 180.589844 252.785156 C 180.648438 252.773438 180.636719 252.683594 180.574219 252.683594 C 170.808594 252.363281 165.523438 245.839844 158.519531 240.464844 C 153.765625 236.820313 148.21875 234.523438 142.027344 234.519531 C 140.429688 234.519531 140.515625 236.644531 142.027344 236.808594 C 151.816406 237.875 157 242.476563 164.382813 247.980469 C 168.953125 251.382813 174.652344 254.261719 180.589844 252.785156 "/>
<path style=" stroke:none;fill-rule:nonzero;fill:rgb(255%,255%,255%);fill-opacity:1;" d="M 172.753906 255.3125 C 173.054688 255.175781 172.839844 254.683594 172.527344 254.800781 C 168.675781 256.273438 164.894531 255.03125 161.6875 252.875 C 161.359375 252.65625 160.867188 253.101563 161.121094 253.410156 C 163.902344 256.828125 168.890625 257.074219 172.753906 255.3125 "/>
<path style=" stroke:none;fill-rule:nonzero;fill:rgb(255%,255%,255%);fill-opacity:1;" d="M 167.800781 203.355469 C 168.027344 203.453125 168.292969 203.195313 168.082031 203.007813 C 165.273438 200.496094 161.25 198.886719 157.554688 197.933594 C 156.617188 197.695313 156.21875 199.0625 157.152344 199.308594 C 160.941406 200.300781 164.230469 201.867188 167.800781 203.355469 "/>
<path style=" stroke:none;fill-rule:nonzero;fill:rgb(255%,255%,255%);fill-opacity:1;" d="M 179.617188 126.433594 C 180.988281 129.796875 182.292969 132.71875 182.558594 136.386719 C 182.570313 136.566406 182.851563 136.570313 182.859375 136.386719 C 182.988281 132.957031 182.425781 129.042969 180.332031 126.148438 C 180.101563 125.824219 179.449219 126.015625 179.617188 126.433594 "/>
<path style=" stroke:none;fill-rule:nonzero;fill:rgb(255%,255%,255%);fill-opacity:1;" d="M 149.398438 68 C 161.050781 72.757813 172.855469 75.429688 179.253906 86.855469 C 179.429688 87.175781 180 86.957031 179.875 86.609375 C 175.742188 75.027344 162.164063 68.617188 150.367188 65.828125 C 149.046875 65.519531 148.042969 67.445313 149.398438 68 "/>
<path style=" stroke:none;fill-rule:nonzero;fill:rgb(255%,255%,255%);fill-opacity:1;" d="M 175.4375 68.480469 C 175.433594 69.074219 176.421875 69.230469 176.558594 68.625 C 178.644531 59.214844 173.46875 49.84375 165.277344 44.578125 C 165.273438 44.582031 165.269531 44.589844 165.265625 44.59375 C 163.867188 43.882813 162.433594 45.8125 163.941406 46.730469 C 172.007813 51.644531 175.464844 59.65625 175.4375 68.480469 "/>
</g>
</svg>
